<?xml version="1.0" encoding="utf-8"?>
<svg version="1.1" id="Layer_1" xmlns="http://www.w3.org/2000/svg" xmlns:xlink="http://www.w3.org/1999/xlink" x="0px" y="0px"
	 viewBox="0 0 512 512" enable-background="new 0 0 512 512" xml:space="preserve">
<radialGradient id="SVGID_1_" cx="520.8768" cy="513.712" r="733.568" gradientTransform="matrix(1 0 0 -1 0 514)" gradientUnits="userSpaceOnUse">
	<stop  offset="0.19" style="stop-color:#1825E0"/>
	<stop  offset="1" style="stop-color:#CE2997"/>
</radialGradient>


<rect fill="url(#SVGID_1_)" width="512" height="512"/>
<g>
	<path fill="#F1F2F2" d="M135,228.5v59.4c0,9.9-3.1,17.7-9.3,23.4c-6.2,5.7-14.6,8.6-25.3,8.6c-10.5,0-18.9-2.8-25.1-8.4
		c-6.2-5.6-9.4-13.2-9.5-23v-60.1h18.6v59.5c0,5.9,1.4,10.2,4.2,12.9c2.8,2.7,6.7,4.1,11.7,4.1c10.4,0,15.8-5.5,15.9-16.5v-60H135z"
		/>
	<path fill="#F1F2F2" d="M173.2,318.7h-18.6v-90.2h18.6V318.7z"/>
	<path fill="#F1F2F2" d="M87,364.2v16.5h11.5v13.1H87v33.5c0,2.5,0.5,4.3,1.4,5.3c0.9,1.1,2.8,1.6,5.5,1.6c2,0,3.7-0.1,5.3-0.4v13.6
		c-3.5,1.1-7.1,1.6-10.8,1.6c-12.6,0-19-6.3-19.2-19v-36.1h-9.8v-13.1h9.8v-16.5H87z"/>
	<path fill="#F1F2F2" d="M129.1,388c4.7-5.7,10.7-8.5,17.9-8.5c14.5,0,21.9,8.4,22.1,25.3v42.9h-17.9v-42.5c0-3.8-0.8-6.7-2.5-8.5
		c-1.7-1.8-4.4-2.8-8.2-2.8c-5.2,0-9,2-11.4,6.1v47.8h-17.9v-95.2h17.9V388z"/>
	<path fill="#F1F2F2" d="M185.7,363.3c0-2.7,0.9-4.9,2.7-6.6c1.8-1.7,4.2-2.6,7.3-2.6c3.1,0,5.5,0.9,7.3,2.6
		c1.8,1.7,2.7,3.9,2.7,6.6c0,2.7-0.9,5-2.8,6.7c-1.8,1.7-4.3,2.6-7.3,2.6c-3,0-5.4-0.9-7.3-2.6C186.6,368.3,185.7,366,185.7,363.3z
		 M204.7,447.7h-18v-67h18V447.7z"/>
	<path fill="#F1F2F2" d="M239.1,380.7l0.6,7.7c4.8-6,11.2-9,19.3-9c7.1,0,12.4,2.1,15.9,6.3c3.5,4.2,5.2,10.4,5.3,18.7v43.3h-17.9
		v-43c0-3.8-0.8-6.6-2.5-8.3c-1.7-1.7-4.4-2.6-8.2-2.6c-5,0-8.8,2.2-11.3,6.5v47.4h-17.9v-67H239.1z"/>
	<path fill="#F1F2F2" d="M294.2,413.7c0-10.3,2.4-18.6,7.3-24.8c4.9-6.3,11.5-9.4,19.8-9.4c7.4,0,13.1,2.5,17.2,7.6l0.7-6.3h16.2
		v64.8c0,5.9-1.3,11-4,15.3c-2.7,4.3-6.4,7.6-11.2,9.9c-4.8,2.3-10.5,3.4-17,3.4c-4.9,0-9.7-1-14.4-2.9c-4.7-2-8.2-4.5-10.6-7.6
		l7.9-10.9c4.5,5,9.9,7.5,16.2,7.5c4.7,0,8.4-1.3,11.1-3.8c2.6-2.5,4-6.1,4-10.8v-3.6c-4.1,4.7-9.6,7-16.3,7
		c-8.1,0-14.6-3.1-19.5-9.4c-5-6.3-7.5-14.7-7.5-25.1V413.7z M312.1,415c0,6.1,1.2,10.9,3.7,14.3c2.4,3.5,5.8,5.2,10,5.2
		c5.5,0,9.4-2.1,11.7-6.2V400c-2.4-4.1-6.3-6.2-11.6-6.2c-4.3,0-7.7,1.8-10.1,5.3C313.4,402.7,312.1,408,312.1,415z"/>
	<path fill="#F1F2F2" d="M408.7,429.2c0-2.2-1.1-3.9-3.3-5.2c-2.2-1.3-5.6-2.4-10.4-3.4c-15.9-3.3-23.9-10.1-23.9-20.3
		c0-5.9,2.5-10.9,7.4-14.9c4.9-4,11.4-6,19.4-6c8.5,0,15.3,2,20.4,6c5.1,4,7.7,9.2,7.7,15.6h-17.9c0-2.6-0.8-4.7-2.5-6.4
		c-1.7-1.7-4.2-2.5-7.7-2.5c-3,0-5.3,0.7-7,2c-1.7,1.4-2.5,3.1-2.5,5.2c0,2,0.9,3.6,2.8,4.8c1.9,1.2,5,2.3,9.5,3.2
		c4.5,0.9,8.2,1.9,11.3,3c9.5,3.5,14.2,9.5,14.2,18c0,6.1-2.6,11.1-7.9,14.8s-12,5.7-20.3,5.7c-5.6,0-10.6-1-15-3
		c-4.4-2-7.8-4.7-10.3-8.2c-2.5-3.5-3.7-7.3-3.7-11.3h17c0.2,3.2,1.3,5.6,3.5,7.3c2.2,1.7,5.1,2.5,8.8,2.5c3.4,0,6-0.7,7.8-2
		C407.9,433,408.7,431.3,408.7,429.2z"/>
</g>
<a class="clickTag"  xlink:href="http://uithings.hu/" target="_parent"><rect width="800" height="800" fill="rgba(0,0,0,0)"></rect> </a>
</svg>
