<?xml version="1.0" encoding="UTF-8"?>
<svg width="1440px" height="2561px" viewBox="0 0 1440 2561" version="1.1" xmlns="http://www.w3.org/2000/svg" xmlns:xlink="http://www.w3.org/1999/xlink">

    <g id="ux-roadmap-arial" stroke="none" stroke-width="1" fill="none" fill-rule="evenodd">
        <rect fill="#F2F4F5" x="0" y="0" width="1440" height="2561"></rect>
        <text id="Product-/-UX-Designe" font-family="Arial-BoldMT, Arial" font-size="30" font-weight="bold" line-spacing="25">
            <tspan x="490.5" y="158" fill="#455A64">Product / UX Designer Roadmap</tspan>
            <tspan x="689.630615" y="189.307617" font-family="ArialMT, Arial" font-size="13" font-weight="normal" fill="#97A1A5">Soma version 1.0</tspan>
        </text>
        <text id="Basics" font-family="Arial-BoldMT, Arial" font-size="16" font-weight="bold" fill="#4A04E7">
            <tspan x="696.203125" y="264">Basics</tspan>
        </text>
        <text id="Understanding-the-Pr" font-family="Arial-BoldMT, Arial" font-size="16" font-weight="bold" fill="#4A04E7">
            <tspan x="619.386719" y="493">Understanding the Product</tspan>
            <tspan x="628.710938" y="510">(Inpired by Marty Cagan)</tspan>
        </text>
        <text id="Conceptual-Design" font-family="Arial-BoldMT, Arial" font-size="16" font-weight="bold" fill="#4A04E7">
            <tspan x="647.546875" y="883">Conceptual Design</tspan>
        </text>
        <text id="Prototyping" font-family="Arial-BoldMT, Arial" font-size="16" font-weight="bold" fill="#4A04E7">
            <tspan x="641.617188" y="1317">Prototyping</tspan>
        </text>
        <text id="Clarify-Product" font-family="Arial-BoldMT, Arial" font-size="16" font-weight="bold" fill="#455A64">
            <tspan x="511.65625" y="617">Clarify Product</tspan>
        </text>
        <text id="Define-Target-Users" font-family="Arial-BoldMT, Arial" font-size="16" font-weight="bold" fill="#455A64">
            <tspan x="456.011719" y="856">Define Target Users</tspan>
        </text>
        <text id="Features-&amp;-Ideas" font-family="Arial-BoldMT, Arial" font-size="18" font-weight="bold" fill="#455A64">
            <tspan x="795.969238" y="1023">Features &amp; Ideas</tspan>
        </text>
        <text id="Business-Modell" font-family="Arial-BoldMT, Arial" font-size="16" font-weight="bold" fill="#455A64">
            <tspan x="836.375" y="682">Business Modell</tspan>
        </text>
        <text id="Existing?" font-family="Arial-BoldMT, Arial" font-size="16" font-weight="bold" fill="#455A64">
            <tspan x="957.496094" y="636">Existing?</tspan>
        </text>
        <text id="Generating" font-family="Arial-BoldMT, Arial" font-size="16" font-weight="bold" fill="#455A64">
            <tspan x="942.769531" y="949">Generating</tspan>
        </text>
        <text id="Ideas" font-family="Arial-BoldMT, Arial" font-size="16" font-weight="bold" fill="#455A64">
            <tspan x="933.042969" y="1576">Ideas</tspan>
        </text>
        <text id="New?" font-family="Arial-BoldMT, Arial" font-size="16" font-weight="bold" fill="#455A64">
            <tspan x="972.664062" y="731">New?</tspan>
        </text>
        <text id="Clarify" font-family="Arial-BoldMT, Arial" font-size="16" font-weight="bold" fill="#455A64">
            <tspan x="960" y="1089">Clarify</tspan>
        </text>
        <text id="Clarify-Copy" font-family="Arial-BoldMT, Arial" font-size="16" font-weight="bold" fill="#455A64">
            <tspan x="933" y="1717">Clarify</tspan>
        </text>
        <text id="Layout-Patterns" font-family="Arial-BoldMT, Arial" font-size="16" font-weight="bold" fill="#455A64">
            <tspan x="434" y="1621">Layout Patterns</tspan>
        </text>
        <text id="User-Story-Mapping-&amp;" font-family="Arial-BoldMT, Arial" font-size="16" font-weight="bold" fill="#455A64">
            <tspan x="884.433594" y="1276">User Story Mapping</tspan>
            <tspan x="891.984375" y="1293">&amp; Backlog Design</tspan>
        </text>
        <text id="Frameworks,-Basics" font-family="Arial-BoldMT, Arial" font-size="18" font-weight="bold" fill="#455A64">
            <tspan x="490.975098" y="380">Frameworks,</tspan>
            <tspan x="517.478516" y="400">Basics</tspan>
        </text>
        <text id="Behaviour-Change-Str" font-family="Arial-BoldMT, Arial" font-size="18" font-weight="bold" fill="#455A64">
            <tspan x="846.48877" y="353">Behaviour </tspan>
            <tspan x="857.49707" y="373">Change </tspan>
            <tspan x="846.980957" y="393">Strategies</tspan>
        </text>
        <text id="User-Research" font-family="Arial-BoldMT, Arial" font-size="18" font-weight="bold" fill="#455A64">
            <tspan x="447.960449" y="687">User Research</tspan>
        </text>
        <text id="Customer-Journey-&amp;-U" font-family="Arial-BoldMT, Arial" font-size="18" font-weight="bold" fill="#455A64">
            <tspan x="451.480957" y="1112">Customer Journey</tspan>
            <tspan x="464.475586" y="1132">&amp; User Journey</tspan>
        </text>
        <text id="Prototyping-Tools" font-family="Arial-BoldMT, Arial" font-size="18" font-weight="bold" fill="#455A64">
            <tspan x="420.175781" y="1467">Prototyping Tools</tspan>
        </text>
        <text id="Workflow" font-family="Arial-BoldMT, Arial" font-size="18" font-weight="bold" fill="#455A64">
            <tspan x="781.166992" y="1645">Workflow</tspan>
        </text>
        <text id="Method" font-family="Arial-BoldMT, Arial" font-size="18" font-weight="bold" fill="#455A64">
            <tspan x="860.007812" y="2219">Method</tspan>
        </text>
        <text id="Copywriting" font-family="Arial-BoldMT, Arial" font-size="16" font-weight="bold" fill="#455A64">
            <tspan x="901.78125" y="1469">Copywriting</tspan>
        </text>
        <g id="Group" transform="translate(214.000000, 274.000000)">
            <rect id="Rectangle" stroke="#4A04E7" stroke-width="3" fill="#FFFFFF" fill-rule="nonzero" x="0" y="0" width="250" height="206" rx="10"></rect>
            <text id="Don’t-make-me-think" font-family="Arial-BoldMT, Arial" font-size="16" font-weight="bold" line-spacing="27" fill="#455A64">
                <tspan x="20" y="29">Don’t make me think </tspan>
                <tspan x="180.921875" y="29" font-family="AppleColorEmoji, Apple Color Emoji" font-weight="normal">📔</tspan>
                <tspan x="201.921875" y="29"></tspan>
                <tspan x="20" y="56">Design Thinking</tspan>
                <tspan x="20" y="83">Inpired (Marty Cagan) </tspan>
                <tspan x="188.90625" y="83" font-family="AppleColorEmoji, Apple Color Emoji" font-weight="normal">📔</tspan>
                <tspan x="209.90625" y="83"></tspan>
                <tspan x="20" y="110">IDF: Design Thinking Course</tspan>
                <tspan x="20" y="137">The Team W courses</tspan>
                <tspan x="20" y="164" line-spacing="21">The Product Designer Role</tspan>
                <tspan x="20" y="185">by Chris Jones</tspan>
            </text>
        </g>
        <g id="Group-Copy" transform="translate(137.000000, 541.000000)">
            <rect id="Rectangle" stroke="#4A04E7" stroke-width="3" fill="#FFFFFF" fill-rule="nonzero" x="0" y="0" width="290" height="250" rx="10"></rect>
            <text id="IDF:-UX-Research-Cou" font-family="Arial-BoldMT, Arial" font-size="16" font-weight="bold" line-spacing="25" fill="#455A64">
                <tspan x="30.046875" y="35">IDF: UX Research Course</tspan>
                <tspan x="20" y="60">Pásztor Dávid: UX Design </tspan>
                <tspan x="229.74375" y="59" font-family="AppleColorEmoji, Apple Color Emoji" font-weight="normal">📔</tspan>
                <tspan x="251.09375" y="60"></tspan>
                <tspan x="20" y="85">Mom test </tspan>
                <tspan x="104.36875" y="84" font-family="AppleColorEmoji, Apple Color Emoji" font-weight="normal">📔</tspan>
                <tspan x="125.71875" y="85"></tspan>
                <tspan x="30.046875" y="110">How to make int. scripts</tspan>
                <tspan x="30.046875" y="135">Designing for the digital age </tspan>
                <tspan x="249.617188" y="135" font-family="AppleColorEmoji, Apple Color Emoji" font-size="15" font-weight="normal">📔</tspan>
                <tspan x="269.617188" y="135"></tspan>
                <tspan x="20" y="160">Portigal: Interviewing Users</tspan>
                <tspan x="241.30625" y="159" font-family="AppleColorEmoji, Apple Color Emoji" font-weight="normal">📔</tspan>
                <tspan x="262.65625" y="160"></tspan>
                <tspan x="20" y="185">Make better surveys! </tspan>
                <tspan x="193.329688" y="184" font-family="AppleColorEmoji, Apple Color Emoji" font-weight="normal">📹</tspan>
                <tspan x="214.679688" y="185"></tspan>
                <tspan x="20" y="210">Make real interviews! </tspan>
                <tspan x="195.110938" y="209" font-family="AppleColorEmoji, Apple Color Emoji" font-weight="normal">🎤</tspan>
                <tspan x="216.460938" y="210"></tspan>
                <tspan x="30.046875" y="235">Qualitative vs Quantitative</tspan>
            </text>
        </g>
        <g id="Group-Copy-2" transform="translate(139.000000, 823.000000)">
            <rect id="Rectangle" stroke="#4A04E7" stroke-width="3" fill="#FFFFFF" fill-rule="nonzero" x="0" y="0" width="290" height="51" rx="10"></rect>
            <text id="User-Personas-👩‍💼" font-family="Arial-BoldMT, Arial" font-size="16" font-weight="bold" line-spacing="27" fill="#455A64">
                <tspan x="23" y="33">User Personas </tspan>
                <tspan x="139.507812" y="33" font-family="AppleColorEmoji, Apple Color Emoji" font-weight="normal">👩‍💼</tspan>
            </text>
        </g>
        <g id="Group-Copy-3" transform="translate(155.000000, 1047.000000)">
            <rect id="Rectangle" stroke="#4A04E7" stroke-width="3" fill="#FFFFFF" fill-rule="nonzero" x="0" y="0" width="280" height="138" rx="10"></rect>
            <text id="IDF-UX-Course-Simple" font-family="Arial-BoldMT, Arial" font-size="16" font-weight="bold" line-spacing="27" fill="#455A64">
                <tspan x="19" y="37">IDF UX Course</tspan>
                <tspan x="19" y="64">Simple instead of complicated</tspan>
                <tspan x="249.273438" y="64" font-family="AppleColorEmoji, Apple Color Emoji" font-weight="normal">❗️</tspan>
                <tspan x="270.273438" y="64"></tspan>
                <tspan x="19" y="91">Fast instead of slow</tspan>
                <tspan x="171.914062" y="91" font-family="AppleColorEmoji, Apple Color Emoji" font-weight="normal">❗️</tspan>
                <tspan x="192.914062" y="91"></tspan>
                <tspan x="19" y="118">Customer Experience Map</tspan>
            </text>
        </g>
        <g id="Group-Copy-11" transform="translate(182.000000, 2026.000000)">
            <rect id="Rectangle" stroke="#4A04E7" stroke-width="3" fill="#FFFFFF" fill-rule="nonzero" x="0" y="0" width="300" height="269" rx="10"></rect>
            <text id="UsabilityHub-5sec-te" font-family="Arial-BoldMT, Arial" font-size="16" font-weight="bold" line-spacing="27" fill="#455A64">
                <tspan x="18" y="32">UsabilityHub</tspan>
                <tspan x="18" y="59">5sec test</tspan>
                <tspan x="18" y="86">Cardsorting</tspan>
                <tspan x="18" y="113">Tree testing</tspan>
                <tspan x="18" y="140">Blur test</tspan>
                <tspan x="18" y="167">How to do a user interview </tspan>
                <tspan x="225.148438" y="167" font-family="AppleColorEmoji, Apple Color Emoji" font-weight="normal">📹</tspan>
                <tspan x="246.148438" y="167"></tspan>
                <tspan x="18" y="194">Michael Margolis</tspan>
                <tspan x="18" y="221">Guerilla Testing</tspan>
                <tspan x="18" y="248">Make a script, practice with friends</tspan>
            </text>
        </g>
        <g id="Group-Copy-7" transform="translate(227.000000, 1373.000000)">
            <rect id="Rectangle" stroke="#4A04E7" stroke-width="3" fill="#FFFFFF" fill-rule="nonzero" x="0" y="0" width="163" height="150" rx="10"></rect>
            <text id="POP-App-Sketch-Axure" font-family="Arial-BoldMT, Arial" font-size="16" font-weight="bold" line-spacing="27" fill="#455A64">
                <tspan x="17" y="29">POP App</tspan>
                <tspan x="17" y="56">Sketch</tspan>
                <tspan x="17" y="83">Axure</tspan>
                <tspan x="17" y="110">Figma</tspan>
                <tspan x="17" y="137">Adobe XD</tspan>
            </text>
        </g>
        <g id="Group-Copy-8" transform="translate(227.000000, 1569.000000)">
            <rect id="Rectangle" stroke="#4A04E7" stroke-width="3" fill="#FFFFFF" fill-rule="nonzero" x="0" y="0" width="163" height="78" rx="10"></rect>
            <text id="GoodUI.org-Visual-Hi" font-family="Arial-BoldMT, Arial" font-size="16" font-weight="bold" line-spacing="27" fill="#455A64">
                <tspan x="16" y="33">GoodUI.org</tspan>
                <tspan x="16" y="60">Visual Hierarchy</tspan>
            </text>
        </g>
        <g id="Group-Copy-4" transform="translate(1048.000000, 891.000000)">
            <rect id="Rectangle" stroke="#4A04E7" stroke-width="3" fill="#FFFFFF" fill-rule="nonzero" x="0" y="0" width="256" height="107" rx="10"></rect>
            <text id="Flowcharts-Design-Sp" font-family="Arial-BoldMT, Arial" font-size="16" font-weight="bold" line-spacing="27" fill="#455A64">
                <tspan x="18" y="24">Flowcharts</tspan>
                <tspan x="18" y="51">Design Sprint</tspan>
                <tspan x="18" y="78">Facilitate Ideation brainstorm</tspan>
            </text>
        </g>
        <g id="Group-Copy-5" transform="translate(1048.000000, 1020.000000)">
            <rect id="Rectangle" stroke="#4A04E7" stroke-width="3" fill="#FFFFFF" fill-rule="nonzero" x="0" y="0" width="256" height="128" rx="10"></rect>
            <text id="Impact-Effort-graph" font-family="Arial-BoldMT, Arial" font-size="16" font-weight="bold" line-spacing="27" fill="#455A64">
                <tspan x="18" y="32">Impact Effort graph </tspan>
                <tspan x="18" y="59">Feature &amp; VP matrix</tspan>
                <tspan x="18" y="86">Hierarchy of user needs</tspan>
                <tspan x="18" y="113">Cardsorting</tspan>
            </text>
        </g>
        <g id="Group-Copy-9" transform="translate(1008.000000, 1519.000000)">
            <rect id="Rectangle" stroke="#4A04E7" stroke-width="3" fill="#FFFFFF" fill-rule="nonzero" x="0" y="0" width="256" height="106" rx="10"></rect>
            <text id="Crazy8’s,-Sketching" font-family="Arial-BoldMT, Arial" font-size="16" font-weight="bold" line-spacing="27" fill="#455A64">
                <tspan x="18" y="34">Crazy8’s, Sketching</tspan>
                <tspan x="18" y="61">Low-, High-Fidelity</tspan>
                <tspan x="18" y="88">Facilitate Design Sprint</tspan>
            </text>
        </g>
        <g id="Group-Copy-12" transform="translate(1008.000000, 1427.000000)">
            <rect id="Rectangle" stroke="#4A04E7" stroke-width="3" fill="#FFFFFF" fill-rule="nonzero" x="0" y="0" width="296" height="67" rx="10"></rect>
            <text id="The-Go-To-Guide-for" font-family="Arial-BoldMT, Arial" font-size="16" font-weight="bold" line-spacing="23" fill="#455A64">
                <tspan x="18" y="32">The Go-To Guide for UX Writers </tspan>
                <tspan x="18" y="55">and Content Strategists</tspan>
            </text>
        </g>
        <g id="Group-Copy-10" transform="translate(1007.000000, 1655.000000)">
            <rect id="Rectangle" stroke="#4A04E7" stroke-width="3" fill="#FFFFFF" fill-rule="nonzero" x="0" y="0" width="256" height="133" rx="10"></rect>
            <text id="Pásztor-Dávid:-UX-De" font-family="Arial-BoldMT, Arial" font-size="16" font-weight="bold" line-spacing="27" fill="#455A64">
                <tspan x="17" y="34">Pásztor Dávid: UX Design </tspan>
                <tspan x="217.046875" y="34" font-family="AppleColorEmoji, Apple Color Emoji" font-weight="normal">📔</tspan>
                <tspan x="238.046875" y="34"></tspan>
                <tspan x="17" y="61">Solution Sketches</tspan>
                <tspan x="17" y="88">Prioritizing Features</tspan>
                <tspan x="17" y="115">Reading Case Studies</tspan>
            </text>
        </g>
        <g id="Group-Copy-13" transform="translate(1007.000000, 1817.000000)">
            <rect id="Rectangle" stroke="#4A04E7" stroke-width="3" fill="#FFFFFF" fill-rule="nonzero" x="0" y="0" width="296" height="185" rx="10"></rect>
            <text id="Working-with-Product" font-family="Arial-BoldMT, Arial" font-size="16" font-weight="bold" line-spacing="27" fill="#455A64">
                <tspan x="17" y="32">Working with Product Teams</tspan>
                <tspan x="17" y="59">Lean UX</tspan>
                <tspan x="17" y="86">Product designers in scrum </tspan>
                <tspan x="17" y="113">teams </tspan>
                <tspan x="17" y="140">Dual Track Development is not </tspan>
                <tspan x="17" y="167">Duel Track</tspan>
            </text>
        </g>
        <g id="Group-Copy-16" transform="translate(952.000000, 2107.000000)">
            <rect id="Rectangle" stroke="#4A04E7" stroke-width="3" fill="#FFFFFF" fill-rule="nonzero" x="0" y="0" width="282" height="214" rx="10"></rect>
            <text id="NN-Group-articles-De" font-family="Arial-BoldMT, Arial" font-size="16" font-weight="bold" line-spacing="27" fill="#455A64">
                <tspan x="19" y="33">NN Group articles</tspan>
                <tspan x="19" y="60">Designing for the digital age </tspan>
                <tspan x="238.570312" y="60" font-family="AppleColorEmoji, Apple Color Emoji" font-weight="normal">📔</tspan>
                <tspan x="259.570312" y="60"></tspan>
                <tspan x="19" y="87">RITE method</tspan>
                <tspan x="19" y="114">A/B testing</tspan>
                <tspan x="19" y="141">Early Stage testing</tspan>
                <tspan x="19" y="168">Google’s HEART Framework</tspan>
                <tspan x="19" y="195">Multivariate Testing</tspan>
            </text>
        </g>
        <g id="Group-Copy-6" transform="translate(1048.000000, 1188.000000)">
            <rect id="Rectangle" stroke="#4A04E7" stroke-width="3" fill="#FFFFFF" fill-rule="nonzero" x="0" y="0" width="256" height="183" rx="10"></rect>
            <text id="3-layer-modell-Help" font-family="Arial-BoldMT, Arial" font-size="16" font-weight="bold" line-spacing="27" fill="#455A64">
                <tspan x="19" y="30">3 layer modell</tspan>
                <tspan x="19" y="57" line-spacing="21">Help devs to understand</tspan>
                <tspan x="19" y="78" line-spacing="31">the user</tspan>
                <tspan x="19" y="109" line-spacing="29">Kano-modell</tspan>
                <tspan x="19" y="138" line-spacing="22">Calculation behind the </tspan>
                <tspan x="19" y="160" line-spacing="22">Kano-modell</tspan>
            </text>
        </g>
        <g id="Group-2" transform="translate(956.000000, 314.000000)">
            <rect id="Rectangle-Copy" stroke="#4A04E7" stroke-width="3" fill="#FFFFFF" fill-rule="nonzero" x="0" y="0" width="254" height="111" rx="10"></rect>
            <text id="BJ-Fogg's-Behavior-M" font-family="Arial-BoldMT, Arial" font-size="16" font-weight="bold" line-spacing="27" fill="#455A64">
                <tspan x="17" y="36">BJ Fogg's Behavior Model</tspan>
                <tspan x="17" y="63">Hooked: How to Build Habit-</tspan>
                <tspan x="17" y="90">Forming Products</tspan>
            </text>
        </g>
        <g id="Group-2-Copy" transform="translate(1046.000000, 535.000000)">
            <rect id="Rectangle-Copy" stroke="#4A04E7" stroke-width="3" fill="#FFFFFF" fill-rule="nonzero" x="0" y="0" width="259" height="270" rx="10"></rect>
            <text id="Business-Modell-Canv" font-family="Arial-BoldMT, Arial" font-size="16" font-weight="bold" line-spacing="27" fill="#455A64">
                <tspan x="23" y="34">Business Modell Canvas</tspan>
                <tspan x="23" y="61">SWOT</tspan>
                <tspan x="23" y="88">Design Sprint </tspan>
                <tspan x="23" y="115">Brand Sprint</tspan>
                <tspan x="23" y="142">Jobs to be done</tspan>
                <tspan x="23" y="169">Value Proposition</tspan>
                <tspan x="23" y="196">Competitive Analysis</tspan>
                <tspan x="23" y="223">Service Blueprint</tspan>
                <tspan x="23" y="250">MVP, MLP</tspan>
            </text>
        </g>
        <path d="M720.745234,202 L720.254766,237" id="Path-2" stroke="#455A64" stroke-width="3" stroke-linecap="round" fill-rule="nonzero"></path>
        <circle id="Oval" fill="#455A64" fill-rule="nonzero" cx="721" cy="376" r="18"></circle>
        <circle id="Oval-Copy" fill="#455A64" fill-rule="nonzero" cx="723" cy="619" r="18"></circle>
        <circle id="Oval-Copy-2" fill="#455A64" fill-rule="nonzero" cx="723" cy="984" r="18"></circle>
        <circle id="Oval-Copy-3" fill="#455A64" fill-rule="nonzero" cx="683" cy="1406" r="18"></circle>
        <circle id="Oval-Copy-4" fill="#455A64" fill-rule="nonzero" cx="730" cy="2061" r="18"></circle>
        <path d="M724,285 C725.333333,316.818182 725.333333,341.818182 724,360" id="Path-3" stroke="#455A64" stroke-width="3" stroke-linecap="round" fill-rule="nonzero"></path>
        <path id="Path-4" d="M817.342182,373.049334 L806.607836,366.39174 C805.903821,365.9551 805.687071,365.030417 806.123711,364.326402 C806.560351,363.622387 807.485034,363.405637 808.189049,363.842277 L823.789693,373.518016 L826.055882,374.923539 L823.677919,376.130353 L807.307813,384.438159 C806.569075,384.813068 805.666285,384.518126 805.291376,383.779387 C804.916467,383.040649 805.211409,382.137859 805.950148,381.76295 L817.214114,376.046502 L807.050088,375.611406 C786.753511,375.152125 762.44394,376.112816 734.125724,378.494722 C733.300212,378.564157 732.574714,377.951236 732.505278,377.125724 C732.435843,376.300212 733.048764,375.574714 733.874276,375.505278 C762.291605,373.115035 786.704716,372.150253 807.148144,372.613161 L817.342182,373.049334 Z" fill="#455A64" fill-rule="nonzero"></path>
        <path id="Path-5" d="M633.618474,386.804781 L644.200689,393.701624 C644.894727,394.153955 645.090668,395.083271 644.638337,395.777308 C644.186006,396.471346 643.25669,396.667287 642.562653,396.214956 L627.183107,386.191505 L624.949034,384.735472 L627.353486,383.582335 L643.905932,375.644041 C644.652899,375.285807 645.548842,375.600937 645.907075,376.347905 C646.265309,377.094872 645.950179,377.990814 645.203211,378.349048 L633.813,383.811615 L643.89994,384.471408 C663.114425,384.827502 684.01353,381.857514 706.596802,375.555206 C707.394739,375.332525 708.222114,375.798864 708.444794,376.596802 C708.667475,377.394739 708.201136,378.222114 707.403198,378.444794 C684.551911,384.821898 663.36578,387.832676 643.774404,387.467962 L633.618474,386.804781 Z" fill="#455A64" fill-rule="nonzero"></path>
        <path d="M721,394 C717,426.223776 717,450.223776 721,466" id="Path-6" stroke="#455A64" stroke-width="3" stroke-linecap="round" fill-rule="nonzero"></path>
        <path id="Path-8" d="M527.940662,653.436957 L535.147639,643.06347 C535.62031,642.383122 536.555017,642.214767 537.235365,642.687439 C537.915713,643.16011 538.084068,644.094817 537.611396,644.775165 L527.137217,659.851357 L525.61571,662.041364 L524.534232,659.603841 L517.089241,642.823731 C516.753268,642.066489 517.094774,641.180265 517.852015,640.844293 C518.609256,640.50832 519.495481,640.849826 519.831453,641.607067 L524.954134,653.15297 L525.915438,643.043466 L525.932251,642.920713 C526.584303,639.284315 527.45886,635.509247 528.555636,631.595261 C528.779168,630.797561 529.607039,630.332105 530.404739,630.555636 C531.202439,630.779168 531.667895,631.607039 531.444364,632.404739 C530.378974,636.206717 529.529639,639.868352 528.896076,643.389401 L527.940662,653.436957 Z" fill="#455A64" fill-rule="nonzero"></path>
        <path id="Path-9" d="M943.142917,631.001862 L931.547184,625.993 C930.786674,625.664493 930.436468,624.78167 930.764975,624.021161 C931.093483,623.260652 931.976305,622.910445 932.736815,623.238952 L949.589346,630.518526 L952.037388,631.575976 L949.862453,633.118951 L934.89002,643.74092 C934.214354,644.220261 933.278036,644.061108 932.798696,643.385442 C932.319355,642.709777 932.478507,641.773459 933.154173,641.294118 L943.456267,633.985452 L933.451649,635.03618 C918.61659,638.455687 908.302576,647.585085 902.395238,662.550737 C902.091074,663.321306 901.219831,663.699402 900.449263,663.395238 C899.678694,663.091074 899.300598,662.219831 899.604762,661.449263 C905.881502,645.547768 917.008305,635.719524 932.870131,632.091638 L933.047897,632.062084 L943.142917,631.001862 Z" fill="#455A64" fill-rule="nonzero"></path>
        <path id="Path-9-Copy-2" d="M928.201988,954.748354 L916.88508,949.137889 C916.142858,948.769925 915.839461,947.869941 916.207425,947.127719 C916.575389,946.385496 917.475373,946.0821 918.217595,946.450063 L934.664898,954.603971 L937.054076,955.788429 L934.801168,957.215144 L919.291959,967.036775 C918.592071,967.479999 917.665395,967.271931 917.222171,966.572042 C916.778947,965.872153 916.987016,964.945477 917.686904,964.502254 L928.359759,957.743376 L918.268383,958.268251 C888.941141,961.53441 872.473552,975.140501 868.479826,999.245181 C868.344416,1000.06247 867.572104,1000.61524 866.754819,1000.47983 C865.937533,1000.34442 865.384764,999.572104 865.520174,998.754819 C869.748288,973.235449 887.348936,958.693186 918.024181,955.279506 L928.201988,954.748354 Z" fill="#455A64" fill-rule="nonzero"></path>
        <path id="Path-9-Copy-4" d="M909.228897,1570.64941 L898.030424,1564.80612 C897.295969,1564.42289 897.011248,1563.51682 897.394481,1562.78237 C897.777715,1562.04792 898.68378,1561.76319 899.418235,1562.14643 L915.69341,1570.6387 L918.057585,1571.87231 L915.775656,1573.25213 L900.066666,1582.75095 C899.357762,1583.17961 898.435587,1582.95242 898.006931,1582.24352 C897.578274,1581.53461 897.80546,1580.61244 898.514365,1580.18378 L909.323758,1573.64762 L899.160925,1573.96683 C859.72457,1576.57623 837.642726,1590.0501 832.466993,1614.31294 C832.294163,1615.12314 831.49726,1615.63982 830.687062,1615.46699 C829.876864,1615.29416 829.360176,1614.49726 829.533007,1613.68706 C835.039315,1587.87454 858.332065,1573.66181 899.014709,1570.97085 L909.228897,1570.64941 Z" fill="#455A64" fill-rule="nonzero"></path>
        <path d="M733,602 C726.333333,578 726.333333,554 733,530" id="Path-7" stroke="#455A64" stroke-width="3" stroke-linecap="round" fill-rule="nonzero" transform="translate(730.500000, 566.000000) scale(-1, -1) translate(-730.500000, -566.000000) "></path>
        <path id="Path-10" d="M643.797494,615.253627 L655.112086,620.868763 C655.854156,621.237034 656.157181,622.137143 655.788911,622.879213 C655.420641,623.621283 654.520532,623.924308 653.778461,623.556038 L637.334525,615.395341 L634.945837,614.209898 L637.199333,612.784112 L652.712596,602.968885 C653.412667,602.52595 654.339257,602.734401 654.782192,603.434472 C655.225127,604.134544 655.016676,605.061134 654.316604,605.504069 L643.642211,612.257748 L653.851567,611.72939 C667.037394,611.317058 681.059024,611.479679 694.558186,612.001118 C697.3964,612.110751 699.978311,612.228232 702.25451,612.345745 C703.051746,612.386904 703.754001,612.425138 704.355095,612.459472 C704.716628,612.480123 704.964632,612.494918 705.092928,612.502881 C705.919764,612.554204 706.548441,613.266092 706.497119,614.092928 C706.445796,614.919764 705.733908,615.548441 704.907072,615.497119 C704.783641,615.489457 704.540559,615.474956 704.184017,615.45459 C703.588319,615.420565 702.891529,615.382628 702.099836,615.341755 C699.83624,615.224893 697.267245,615.107999 694.44239,614.998882 C681.007453,614.479925 667.051929,614.31807 653.976007,614.726651 L643.797494,615.253627 Z" fill="#455A64" fill-rule="nonzero"></path>
        <path id="Path-11" d="M818.419406,674.101133 L807.980469,666.989289 C807.295829,666.522857 807.118936,665.589729 807.585368,664.905088 C808.0518,664.220448 808.984929,664.043555 809.669569,664.509987 L824.840883,674.845906 L827.044708,676.347329 L824.617174,677.451045 L807.905824,685.049124 C807.151686,685.392005 806.262377,685.058615 805.919496,684.304477 C805.576615,683.550339 805.910005,682.661029 806.664143,682.318149 L818.162734,677.090133 L808.039348,676.220813 L807.912646,676.204473 C782.575637,671.832892 757.903191,656.41379 733.890273,630.009211 C733.332901,629.396325 733.377904,628.447645 733.990789,627.890273 C734.603675,627.332901 735.552355,627.377904 736.109727,627.990789 C759.685471,653.914652 783.770566,668.976196 808.359992,673.237307 L818.419406,674.101133 Z" fill="#455A64" fill-rule="nonzero"></path>
        <path id="Path-12" d="M625.717489,815.47264 L638.275132,814.110533 C639.098729,814.021199 639.838805,814.616436 639.928139,815.440033 C640.017473,816.263629 639.422236,817.003705 638.59864,817.093039 L620.348128,819.072643 L617.697012,819.360205 L618.827954,816.945235 L626.613455,800.320374 C626.964793,799.570139 627.857795,799.24677 628.60803,799.598109 C629.358265,799.949447 629.681635,800.842449 629.330296,801.592684 L623.973125,813.032182 L632.197792,807.155704 C686.41029,765.84112 713.5,707.836819 713.5,633 C713.5,632.171573 714.171573,631.5 715,631.5 C715.828427,631.5 716.5,632.171573 716.5,633 C716.5,708.748831 688.994372,767.643694 633.979078,809.569185 L625.717489,815.47264 Z" fill="#455A64" fill-rule="nonzero"></path>
        <path d="M804.003725,662.02371 C781.95263,716.340148 728.801771,769.491008 644.551145,821.47629" id="Path-12-Copy" stroke="#455A64" stroke-width="3" stroke-linecap="round" fill-rule="nonzero" transform="translate(724.277435, 741.750000) scale(-1, -1) rotate(-225.000000) translate(-724.277435, -741.750000) "></path>
        <path id="Path-13" d="M638.958387,1113.04396 L651.301734,1115.72566 C652.111276,1115.90154 652.62496,1116.70038 652.44908,1117.50992 C652.2732,1118.31947 651.474358,1118.83315 650.664816,1118.65727 L632.725749,1114.75985 L630.119874,1114.1937 L631.956904,1112.26071 L644.603176,1098.95388 C645.173868,1098.35338 646.123308,1098.32922 646.72381,1098.89991 C647.324311,1099.4706 647.348477,1100.42004 646.777784,1101.02054 L638.076254,1110.17658 L647.78209,1107.19064 C685.914025,1092.19629 707.507575,1054.51734 712.505068,993.8768 C712.573109,993.051172 713.297572,992.437027 714.1232,992.505068 C714.948828,992.573109 715.562973,993.297572 715.494932,994.1232 C710.409815,1055.82698 688.205972,1094.54632 648.825653,1110.00387 L648.718649,1110.04127 L638.958387,1113.04396 Z" fill="#455A64" fill-rule="nonzero"></path>
        <path d="M720.298611,899 C723.377315,921 722.277778,946 717,974" id="Path-15" stroke="#455A64" stroke-width="3" stroke-linecap="round" fill-rule="nonzero" transform="translate(719.500000, 936.500000) scale(-1, 1) translate(-719.500000, -936.500000) "></path>
        <path d="M680.298611,1339 C683.377315,1356.30667 682.277778,1375.97333 677,1398" id="Path-15-Copy" stroke="#455A64" stroke-width="3" stroke-linecap="round" fill-rule="nonzero" transform="translate(679.500000, 1368.500000) scale(-1, 1) translate(-679.500000, -1368.500000) "></path>
        <path id="Path-16" d="M770.446353,1017.89829 L761.64343,1008.83969 C761.066088,1008.24558 761.079682,1007.29593 761.673793,1006.71859 C762.267904,1006.14124 763.217554,1006.15484 763.794896,1006.74895 L776.588527,1019.91417 L778.446963,1021.82658 L775.847552,1022.42171 L757.952986,1026.5186 C757.145453,1026.70348 756.340941,1026.19872 756.156059,1025.39119 C755.971178,1024.58365 756.475937,1023.77914 757.28347,1023.59426 L769.596197,1020.77531 L759.787131,1017.87674 L759.629592,1017.82046 C746.946191,1012.47434 738.705562,1003.78092 735.012843,991.808484 C734.768678,991.016856 735.212483,990.17718 736.004111,989.933014 C736.795739,989.688848 737.635415,990.132653 737.879581,990.924281 C741.295709,1001.99996 748.873748,1010.01046 760.718159,1015.02362 L770.446353,1017.89829 Z" fill="#455A64" fill-rule="nonzero"></path>
        <path id="Path-17" d="M859.089702,1257.95089 L850.919141,1248.31804 C850.383272,1247.68627 850.461018,1246.73971 851.09279,1246.20384 C851.724563,1245.66797 852.671123,1245.74572 853.206991,1246.37749 L865.081586,1260.37728 L866.80652,1262.41092 L864.172831,1262.829 L846.04229,1265.70711 C845.224107,1265.83699 844.45555,1265.27901 844.325669,1264.46083 C844.195788,1263.64264 844.753767,1262.87409 845.571949,1262.74421 L858.047896,1260.76373 L848.465215,1257.21085 C769.596541,1224.12492 728.652014,1138.63387 725.500393,1001.03435 C725.481424,1000.20614 726.137443,999.519363 726.965653,999.500393 C727.793862,999.481424 728.480637,1000.13744 728.499607,1000.96565 C731.626949,1137.5052 772.046077,1221.89923 849.566812,1254.42114 L859.089702,1257.95089 Z" fill="#455A64" fill-rule="nonzero"></path>
        <path id="Path-14" d="M519.092647,821.508021 L520.773769,814.435036 C520.837624,814.166378 521.107179,814.000352 521.375837,814.064207 C521.644495,814.128063 521.810521,814.397618 521.746666,814.666276 L519.624164,823.596281 L519.418617,824.461078 L518.7863,823.836339 L512.256912,817.385207 C512.060477,817.191126 512.058568,816.874549 512.25265,816.678113 C512.446731,816.481677 512.763308,816.479769 512.959743,816.67385 L518.131326,821.783451 L517.099156,818.180918 C517.023098,817.915456 517.17664,817.6386 517.442101,817.562542 C517.707563,817.486484 517.984419,817.640026 518.060477,817.905487 L519.092647,821.508021 Z M518.509684,708.902069 C518.56377,708.631275 518.827137,708.455599 519.097931,708.509684 C519.368725,708.56377 519.544401,708.827137 519.490316,709.097931 C519.161822,710.742619 518.844907,712.376459 518.53957,713.999453 C518.488514,714.270835 518.227128,714.449445 517.955746,714.398389 C517.684364,714.347333 517.505755,714.085947 517.55681,713.814565 C517.862839,712.187895 518.180464,710.550397 518.509684,708.902069 Z M516.659302,718.742783 C516.707172,718.470822 516.966447,718.28916 517.238408,718.33703 C517.51037,718.3849 517.692032,718.644175 517.644161,718.916136 C517.353071,720.569891 517.074335,722.21207 516.807953,723.842673 C516.763432,724.115203 516.506411,724.30004 516.233881,724.255518 C515.961352,724.210997 515.776514,723.953976 515.821036,723.681446 C516.088081,722.046781 516.367503,720.40056 516.659302,718.742783 Z M515.046339,728.62194 C515.087343,728.348859 515.341959,728.160723 515.61504,728.201726 C515.888121,728.24273 516.076257,728.497346 516.035254,728.770427 C515.785933,730.430887 515.5498,732.078988 515.326856,733.714728 C515.289563,733.988341 515.037525,734.179917 514.763913,734.142624 C514.4903,734.105332 514.298724,733.853294 514.336017,733.579681 C514.559575,731.939437 514.796349,730.286857 515.046339,728.62194 Z M513.694037,738.553272 C513.72741,738.279154 513.976681,738.083991 514.2508,738.117364 C514.524918,738.150737 514.72008,738.400008 514.686707,738.674127 C514.483785,740.340879 514.294987,741.994391 514.120313,743.634662 C514.091071,743.909252 513.844767,744.108146 513.570178,744.078905 C513.295588,744.049664 513.096694,743.80336 513.125935,743.52877 C513.301143,741.883484 513.490511,740.224985 513.694037,738.553272 Z M512.635435,748.506145 C512.660316,748.231126 512.903432,748.028349 513.178452,748.053229 C513.453471,748.07811 513.656248,748.321227 513.631368,748.596246 C513.480048,750.268867 513.343908,751.927253 513.222948,753.571406 C513.202687,753.846804 512.963008,754.053633 512.68761,754.033373 C512.412212,754.013112 512.205382,753.773432 512.225643,753.498034 C512.347016,751.848276 512.483613,750.184313 512.635435,748.506145 Z M511.901705,758.503026 C511.917068,758.227312 512.153032,758.016254 512.428747,758.031616 C512.704462,758.046979 512.915519,758.282943 512.900157,758.558658 C512.806711,760.235772 512.729633,761.897536 512.668921,763.543948 C512.658745,763.819902 512.42679,764.035359 512.150835,764.025183 C511.87488,764.015007 511.659424,763.783052 511.6696,763.507097 C511.730544,761.854392 511.807913,760.186368 511.901705,758.503026 Z M511.534455,768.511828 C511.539132,768.235725 511.76675,768.015691 512.042853,768.020369 C512.318955,768.025046 512.538989,768.252664 512.534312,768.528766 C512.505859,770.208286 512.495102,771.871201 512.50204,773.517512 C512.503204,773.793652 512.280292,774.018451 512.004152,774.019615 C511.728012,774.020779 511.503213,773.797867 511.502049,773.521727 C511.495081,771.868329 511.505883,770.198362 511.534455,768.511828 Z M511.579003,778.535569 C511.571629,778.259525 511.789429,778.029769 512.065472,778.022395 C512.341516,778.01502 512.571272,778.23282 512.578647,778.508864 C512.623512,780.188254 512.687571,781.849627 512.770824,783.492984 C512.784795,783.768772 512.572551,784.003669 512.296762,784.017641 C512.020973,784.031612 511.786076,783.819368 511.772105,783.543579 C511.688447,781.892221 511.62408,780.222885 511.579003,778.535569 Z M512.089051,788.550315 C512.06806,788.274972 512.274253,788.034745 512.549597,788.013754 C512.82494,787.992763 513.065167,788.198956 513.086158,788.4743 C513.21384,790.149128 513.36238,791.804371 513.531776,793.44003 C513.560222,793.714703 513.360616,793.96043 513.085942,793.988876 C512.811269,794.017322 512.565542,793.817716 512.537096,793.543043 C512.366764,791.898349 512.217417,790.234106 512.089051,788.550315 Z M513.12678,798.537165 C513.090387,798.263431 513.28279,798.012024 513.556524,797.975631 C513.830257,797.939238 514.081665,798.131641 514.118058,798.405374 C514.339379,800.070076 514.583402,801.713453 514.850122,803.335508 C514.894928,803.607991 514.710358,803.865204 514.437875,803.910009 C514.165392,803.954815 513.908179,803.770246 513.863373,803.497762 C513.594978,801.865523 513.349448,800.21199 513.12678,798.537165 Z M514.760074,808.446331 C514.706326,808.17547 514.88233,807.912322 515.153191,807.858573 C515.424052,807.804825 515.6872,807.98083 515.740949,808.251691 C516.067655,809.898102 516.419054,811.52131 516.795145,813.121315 C516.858332,813.390131 516.691636,813.659273 516.42282,813.72246 C516.154004,813.785646 515.884863,813.618951 515.821676,813.350135 C515.442904,811.73872 515.089038,810.104118 514.760074,808.446331 Z" fill="#979797" fill-rule="nonzero"></path>
        <path id="Path-14-Copy-2" d="M863.356317,992.108233 L863.960362,992.760347 L863.112694,992.963084 L863.356317,992.108233 Z M863.356317,992.108233 L865.62838,984.135779 C865.704064,983.870211 865.980704,983.716279 866.246272,983.791963 C866.511841,983.867647 866.665772,984.144287 866.590088,984.409855 L864.074402,993.237161 L863.830778,994.092012 L863.226733,993.439898 L856.989289,986.706081 C856.801636,986.503495 856.813742,986.187144 857.016328,985.999492 C857.218914,985.811839 857.535265,985.823945 857.722917,986.026531 L863.356317,992.108233 Z M862.983247,706.536585 C863.025912,706.263759 863.281668,706.077176 863.554495,706.119841 C863.827321,706.162507 864.013904,706.418263 863.971239,706.69109 C863.713176,708.341294 863.458748,709.987155 863.207954,711.628673 C863.166248,711.901648 862.91115,712.089129 862.638175,712.047423 C862.3652,712.005718 862.177719,711.750619 862.219425,711.477644 C862.470396,709.834966 862.725003,708.187946 862.983247,706.536585 Z M861.472819,716.423499 C861.513547,716.150376 861.767973,715.961984 862.041095,716.002712 C862.314218,716.04344 862.50261,716.297866 862.461882,716.570988 C862.215604,718.222529 861.973044,719.869626 861.734202,721.512279 C861.694469,721.785548 861.44073,721.974866 861.167462,721.935133 C860.894193,721.895399 860.704875,721.641661 860.744608,721.368392 C860.983625,719.724536 861.226362,718.076238 861.472819,716.423499 Z M860.034353,726.317454 C860.073073,726.044039 860.326108,725.853782 860.599522,725.892502 C860.872936,725.931221 861.063194,726.184256 861.024474,726.45767 C860.790227,728.111772 860.559792,729.761318 860.333169,731.406308 C860.295482,731.679866 860.043167,731.871078 859.769609,731.833391 C859.49605,731.795704 859.304839,731.543389 859.342526,731.269831 C859.569321,729.623592 859.79993,727.9728 860.034353,726.317454 Z M858.666878,736.244958 C858.703508,735.971256 858.955082,735.779072 859.228785,735.815702 C859.502487,735.852333 859.694671,736.103907 859.658041,736.377609 C859.436288,738.034537 859.218447,739.68679 859.004516,741.33437 C858.968959,741.608213 858.71814,741.801382 858.444296,741.765825 C858.170453,741.730268 857.977284,741.479449 858.012841,741.205605 C858.22694,739.556728 858.444953,737.903179 858.666878,736.244958 Z M857.379349,746.161539 C857.413814,745.887555 857.663861,745.693388 857.937844,745.727853 C858.211827,745.762318 858.405995,746.012365 858.37153,746.286348 C858.162765,747.945935 857.958015,749.600724 857.757278,751.250716 C857.723928,751.524837 857.474674,751.720021 857.200553,751.686672 C856.926432,751.653322 856.731247,751.404068 856.764597,751.129947 C856.965498,749.478606 857.170416,747.82247 857.379349,746.161539 Z M856.172313,756.083443 C856.204529,755.809186 856.452974,755.612973 856.727231,755.645189 C857.001488,755.677405 857.197701,755.92585 857.165485,756.200107 C856.970348,757.86133 856.779327,759.517632 856.592423,761.169015 C856.561367,761.443405 856.313754,761.640667 856.039364,761.609611 C855.764973,761.578556 855.567711,761.330943 855.598767,761.056552 C855.78583,759.403767 855.977012,757.746064 856.172313,756.083443 Z M855.047126,766.025957 C855.077,765.751436 855.323761,765.553109 855.598283,765.582983 C855.872804,765.612857 856.071131,765.859618 856.041257,766.13414 C855.860507,767.795121 855.683971,769.451064 855.511651,771.10197 C855.482983,771.37662 855.237095,771.576028 854.962444,771.54736 C854.687794,771.518692 854.488386,771.272804 854.517054,770.998154 C854.689527,769.34579 854.866218,767.688391 855.047126,766.025957 Z M854.007888,775.984193 C854.035322,775.709417 854.280313,775.508907 854.555089,775.536342 C854.829865,775.563776 855.030375,775.808766 855.002941,776.083542 C854.836881,777.746749 854.675152,779.404778 854.517754,781.057631 C854.491576,781.33253 854.247505,781.534158 853.972606,781.50798 C853.697707,781.481802 853.496079,781.237731 853.522257,780.962832 C853.6798,779.30846 853.841677,777.648913 854.007888,775.984193 Z M853.060473,785.934255 C853.085371,785.659238 853.328501,785.456476 853.603519,785.481374 C853.878536,785.506272 854.081298,785.749401 854.0564,786.024419 C853.905517,787.691032 853.759094,789.352316 853.617129,791.008268 C853.593542,791.283402 853.351382,791.48732 853.076249,791.463733 C852.801115,791.440146 852.597197,791.197985 852.620784,790.922852 C852.762884,789.265314 852.909448,787.602448 853.060473,785.934255 Z M852.205464,795.909247 C852.227714,795.634003 852.468881,795.42891 852.744125,795.451159 C853.01937,795.473409 853.224463,795.714575 853.202213,795.98982 C853.067628,797.654747 852.937609,799.314215 852.812157,800.968224 C852.791272,801.243576 852.551126,801.449862 852.275774,801.428977 C852.000423,801.408092 851.794137,801.167946 851.815021,800.892594 C851.940599,799.236934 852.070746,797.575819 852.205464,795.909247 Z M851.449049,805.8849 C851.468538,805.609446 851.707636,805.401945 851.983089,805.421434 C852.258543,805.440922 852.466044,805.68002 852.446556,805.955474 C852.328672,807.621673 852.215485,809.282257 852.106994,810.937227 C852.08893,811.212778 851.850909,811.421513 851.575358,811.403449 C851.299807,811.385385 851.091072,811.147364 851.109136,810.871813 C851.21774,809.21512 851.331044,807.552816 851.449049,805.8849 Z M850.794461,815.874264 C850.811064,815.598621 851.047976,815.388628 851.323619,815.405232 C851.599262,815.421835 851.809255,815.658748 851.792651,815.93439 C851.692172,817.602493 851.596531,819.264812 851.505726,820.921348 C851.490612,821.197076 851.254837,821.408346 850.979108,821.393231 C850.70338,821.378117 850.492111,821.142342 850.507225,820.866614 C850.598128,819.208277 850.693874,817.54416 850.794461,815.874264 Z M850.247604,825.853407 C850.261198,825.577599 850.495805,825.365033 850.771612,825.378627 C851.04742,825.392221 851.259986,825.626827 851.246392,825.902635 C851.164143,827.57138 851.086873,829.234174 851.014581,830.891015 C851.002544,831.166895 850.769141,831.380782 850.493261,831.368745 C850.217381,831.356707 850.003494,831.123304 850.015532,830.847424 C850.087906,829.1887 850.165263,827.524028 850.247604,825.853407 Z M849.811593,835.852423 C849.822035,835.576478 850.054197,835.361245 850.330142,835.371687 C850.606087,835.382129 850.821319,835.614291 850.810877,835.890236 C850.747715,837.559401 850.689679,839.222437 850.63677,840.879343 C850.627957,841.155344 850.397069,841.371943 850.121067,841.36313 C849.845065,841.354316 849.628466,841.123428 849.63728,840.847426 C849.690252,839.188551 849.748356,837.52355 849.811593,835.852423 Z M849.492241,845.864387 C849.499381,845.588337 849.728952,845.370342 850.005002,845.377482 C850.281052,845.384622 850.499047,845.614192 850.491907,845.890242 C850.448635,847.56329 850.410669,849.229993 850.378009,850.890351 C850.372578,851.16644 850.144362,851.385852 849.868273,851.380421 C849.592184,851.374991 849.372772,851.146774 849.378203,850.870685 C849.410903,849.208259 849.448916,847.539493 849.492241,845.864387 Z M849.29569,855.865095 C849.299375,855.588978 849.5262,855.368128 849.802318,855.371813 C850.078436,855.375499 850.299286,855.602324 850.295601,855.878442 C850.273264,857.551934 850.256401,859.21888 850.245012,860.87928 C850.243118,861.155416 850.017731,861.377733 849.741595,861.375839 C849.465459,861.373945 849.243142,861.148557 849.245036,860.872421 C849.256439,859.209854 849.273324,857.540745 849.29569,855.865095 Z M849.227259,865.882012 C849.227318,865.605869 849.451223,865.382059 849.727365,865.382117 C850.003508,865.382176 850.227318,865.606081 850.227259,865.882223 C850.226906,867.554399 850.232193,869.219828 850.243122,870.878511 C850.244942,871.154647 850.022564,871.379975 849.746427,871.381794 C849.470291,871.383614 849.244963,871.161236 849.243144,870.8851 C849.2322,869.224145 849.226905,867.556449 849.227259,865.882012 Z M849.293501,875.890445 C849.289756,875.614328 849.510558,875.387456 849.786675,875.383711 C850.062792,875.379967 850.289665,875.600769 850.293409,875.876886 C850.316085,877.548998 850.344589,879.214141 850.378921,880.872314 C850.384637,881.148397 850.165461,881.376841 849.889378,881.382557 C849.613295,881.388273 849.384851,881.169098 849.379135,880.893014 C849.344753,879.232457 849.316209,877.564934 849.293501,875.890445 Z M849.500608,885.88303 C849.492876,885.606996 849.710377,885.376958 849.986412,885.369225 C850.262446,885.361493 850.492484,885.578994 850.500216,885.855028 C850.547029,887.526159 850.599864,889.19009 850.658719,890.846819 C850.668522,891.122787 850.452753,891.354451 850.176785,891.364255 C849.900817,891.374059 849.669153,891.15829 849.659349,890.882321 C849.600405,889.223087 849.547491,887.556656 849.500608,885.88303 Z M849.856955,895.900496 C849.845019,895.624612 850.058991,895.391287 850.334875,895.379351 C850.610759,895.367415 850.844084,895.581387 850.85602,895.857271 C850.928292,897.527698 851.006794,899.190673 851.091525,900.846197 C851.10564,901.121978 850.893518,901.356986 850.617736,901.3711 C850.341955,901.385215 850.106947,901.173092 850.092833,900.897311 C850.007966,899.239152 849.92934,897.573547 849.856955,895.900496 Z M850.367346,905.86955 C850.351006,905.593892 850.561226,905.357181 850.836885,905.340842 C851.112543,905.324502 851.349254,905.534722 851.365593,905.810381 C851.464517,907.479301 851.569887,909.14051 851.681704,910.794008 C851.700336,911.069521 851.492092,911.307972 851.216579,911.326604 C850.941066,911.345235 850.702614,911.136992 850.683983,910.861478 C850.571978,909.205209 850.466432,907.541233 850.367346,905.86955 Z M851.043459,915.860783 C851.02247,915.58544 851.228666,915.345215 851.504009,915.324227 C851.779353,915.303238 852.019578,915.509434 852.040566,915.784778 C852.167674,917.452286 852.301464,919.111801 852.441936,920.763323 C852.465339,921.038472 852.261258,921.280496 851.98611,921.303899 C851.710961,921.327302 851.468937,921.123222 851.445533,920.848073 C851.304813,919.193631 851.170788,917.531201 851.043459,915.860783 Z M851.892014,925.832421 C851.866132,925.557494 852.068022,925.31364 852.342949,925.287758 C852.617876,925.261876 852.86173,925.463767 852.887612,925.738694 C853.044363,927.403756 853.208041,929.060533 853.378645,930.709023 C853.407072,930.983698 853.207447,931.229411 852.932772,931.257837 C852.658097,931.286264 852.412384,931.08664 852.383958,930.811964 C852.213035,929.160397 852.049054,927.500549 851.892014,925.832421 Z M852.922947,935.78955 C852.891907,935.515158 853.089182,935.267556 853.363574,935.236516 C853.637967,935.205475 853.885569,935.402751 853.916609,935.677143 C854.104588,937.33884 854.299749,938.991944 854.502093,940.636455 C854.535816,940.91053 854.340971,941.16005 854.066896,941.193773 C853.79282,941.227496 853.543301,941.032651 853.509578,940.758576 C853.306835,939.110822 853.111291,937.45448 852.922947,935.78955 Z M854.147371,945.735861 C854.110886,945.46214 854.303204,945.210668 854.576925,945.174182 C854.850646,945.137697 855.102119,945.330015 855.138604,945.603736 C855.359654,947.262102 855.588166,948.911542 855.824138,950.552054 C855.863454,950.825383 855.673749,951.078832 855.400419,951.118148 C855.12709,951.157464 854.873641,950.967759 854.834325,950.694429 C854.597861,949.050495 854.368876,947.397639 854.147371,945.735861 Z M855.573209,955.645055 C855.530987,955.372159 855.717984,955.116706 855.990879,955.074483 C856.263775,955.032261 856.519228,955.219258 856.561451,955.492153 C856.817179,957.144988 857.080649,958.788558 857.351861,960.422864 C857.397069,960.695281 857.212879,960.952766 856.940462,960.997974 C856.668046,961.043181 856.41056,960.858992 856.365353,960.586575 C856.093542,958.94866 855.829494,957.301487 855.573209,955.645055 Z M857.212461,965.519773 C857.164187,965.247883 857.345464,964.988338 857.617354,964.940065 C857.889245,964.891791 858.148789,965.073068 858.197062,965.344958 C858.48948,966.991933 858.789944,968.62928 859.098454,970.256999 C859.149877,970.528311 858.971621,970.78994 858.700309,970.841363 C858.428997,970.892786 858.167369,970.714531 858.115945,970.443219 C857.806715,968.811693 857.505553,967.170544 857.212461,965.519773 Z M859.07839,975.361155 C859.023729,975.090477 859.198846,974.826737 859.469524,974.772076 C859.740202,974.717415 860.003942,974.892531 860.058603,975.163209 C860.389721,976.802881 860.729202,978.432544 861.077045,980.052199 C861.135028,980.322185 860.963166,980.588057 860.693179,980.64604 C860.423193,980.704023 860.157321,980.532161 860.099338,980.262174 C859.750633,978.638505 859.410317,977.004832 859.07839,975.361155 Z M861.18255,985.15549 C861.121152,984.88626 861.289633,984.618232 861.558863,984.556834 C861.828093,984.495436 862.09612,984.663917 862.157518,984.933148 C862.191537,985.082227 862.191537,985.082227 862.224508,985.226479 L863.316323,989.791493 C863.380557,990.06006 863.214911,990.329849 862.946343,990.394083 C862.677775,990.458316 862.407987,990.29267 862.343753,990.024102 L861.250826,985.454339 C861.216655,985.304953 861.216655,985.304953 861.18255,985.15549 Z" fill="#979797" fill-rule="nonzero"></path>
        <path id="Path-14-Copy" d="M551.21057,1084.38758 L551.311352,1077.11825 C551.315181,1076.84214 551.54212,1076.6214 551.818236,1076.62523 C552.094352,1076.62906 552.315084,1076.856 552.311256,1077.13211 L552.184013,1086.31001 L552.17169,1087.19882 L551.418518,1086.72674 L543.641168,1081.85203 C543.407188,1081.70537 543.336397,1081.39681 543.483052,1081.16283 C543.629707,1080.92884 543.938273,1080.85805 544.172253,1081.00471 L550.332281,1084.86571 L548.765276,1081.98725 C548.633243,1081.74472 548.722821,1081.44107 548.965354,1081.30904 C549.207887,1081.17701 549.511531,1081.26659 549.643564,1081.50912 L551.21057,1084.38758 Z M550.974503,877.694711 C551.067964,877.434865 551.354376,877.299984 551.614221,877.393445 C551.874067,877.486906 552.008948,877.773317 551.915487,878.033162 C551.349414,879.606992 550.793804,881.175378 550.248657,882.73832 C550.157713,882.999057 549.872619,883.136702 549.611882,883.045758 C549.351145,882.954814 549.213501,882.66972 549.304445,882.408983 C549.850656,880.84299 550.407342,879.271566 550.974503,877.694711 Z M547.679735,887.142496 C547.768072,886.880864 548.051777,886.74038 548.313409,886.828717 C548.575041,886.917053 548.715525,887.200759 548.627188,887.462391 C548.091579,889.048741 547.566902,890.629402 547.053158,892.204375 C546.967523,892.466903 546.685281,892.610304 546.422752,892.524669 C546.160223,892.439034 546.016823,892.156792 546.102458,891.894263 C546.61727,890.316016 547.14303,888.732093 547.679735,887.142496 Z M544.572563,896.670154 C544.655395,896.406727 544.936092,896.260326 545.199519,896.343158 C545.462945,896.425989 545.609347,896.706687 545.526515,896.970113 C545.024272,898.567383 544.53344,900.158714 544.054018,901.744106 C543.974087,902.008428 543.695016,902.157906 543.430695,902.077975 C543.166373,901.998044 543.016895,901.718973 543.096826,901.454652 C543.577312,899.865742 544.069224,898.27091 544.572563,896.670154 Z M541.677076,906.24695 C541.754005,905.981739 542.031363,905.829107 542.296574,905.906036 C542.561784,905.982964 542.714417,906.260323 542.637488,906.525534 C542.170603,908.135108 541.71566,909.738467 541.272657,911.33561 C541.19885,911.601706 540.923303,911.757587 540.657207,911.683779 C540.391112,911.609972 540.235231,911.334426 540.309039,911.06833 C540.753091,909.467401 541.209104,907.860275 541.677076,906.24695 Z M539.002123,915.892752 C539.072701,915.625781 539.346339,915.466574 539.61331,915.537153 C539.88028,915.607732 540.039487,915.881369 539.968909,916.14834 C539.541463,917.765192 539.12645,919.375573 538.723868,920.979482 C538.656641,921.247316 538.385021,921.409941 538.117186,921.342715 C537.849352,921.275488 537.686727,921.003867 537.753954,920.736033 C538.157556,919.12806 538.573613,917.513633 539.002123,915.892752 Z M536.56367,925.61155 C536.627406,925.342864 536.896887,925.176718 537.165574,925.240454 C537.43426,925.30419 537.600405,925.573672 537.536669,925.842358 C537.150334,927.471001 536.777029,929.092861 536.416755,930.707936 C536.356633,930.977454 536.089407,931.147203 535.819889,931.087082 C535.550371,931.026961 535.380622,930.759735 535.440743,930.490217 C535.801995,928.870759 536.176305,927.244537 536.56367,925.61155 Z M534.382761,935.39251 C534.439123,935.122181 534.703959,934.948727 534.974288,935.005089 C535.244618,935.061451 535.418072,935.326287 535.36171,935.596616 C535.020224,937.234476 534.692369,938.865237 534.378145,940.488901 C534.325677,940.760013 534.063364,940.937259 533.792252,940.884791 C533.521139,940.832323 533.343893,940.57001 533.396361,940.298898 C533.711499,938.670513 534.040299,937.035051 534.382761,935.39251 Z M532.483329,945.211105 C532.53176,944.939243 532.791408,944.758116 533.063271,944.806546 C533.335133,944.854977 533.51626,945.114626 533.467829,945.386488 C533.174207,947.034717 532.894882,948.6755 532.629854,950.308837 C532.585626,950.581415 532.328803,950.766528 532.056226,950.722299 C531.783649,950.67807 531.598536,950.421248 531.642764,950.148671 C531.908618,948.51024 532.188807,946.864385 532.483329,945.211105 Z M530.878302,955.10953 C530.918159,954.836279 531.171982,954.647075 531.445233,954.686932 C531.718484,954.726788 531.907688,954.980612 531.867831,955.253863 C531.626465,956.908644 531.400048,958.555638 531.188581,960.194845 C531.15325,960.468718 530.90259,960.662094 530.628717,960.626763 C530.354845,960.591432 530.161468,960.340772 530.1968,960.066899 C530.408974,958.422208 530.636142,956.769751 530.878302,955.10953 Z M529.597392,965.048075 C529.628014,964.773636 529.875314,964.575983 530.149754,964.606604 C530.424193,964.637226 530.621846,964.884527 530.591224,965.158966 C530.405514,966.823345 530.235516,968.479539 530.081232,970.127546 C530.055493,970.402486 529.811743,970.604503 529.536803,970.578764 C529.261863,970.553024 529.059846,970.309275 529.085586,970.034335 C529.240424,968.380411 529.411026,966.718325 529.597392,965.048075 Z M528.664214,975.026802 C528.684892,974.751435 528.924883,974.544968 529.20025,974.565646 C529.475618,974.586323 529.682084,974.826315 529.661406,975.101682 C529.536198,976.769095 529.427403,978.427956 529.33502,980.078267 C529.319586,980.353978 529.083566,980.564974 528.807856,980.54954 C528.532145,980.534106 528.321149,980.298086 528.336583,980.022376 C528.429322,978.365713 528.538532,976.700522 528.664214,975.026802 Z M528.105413,985.031998 C528.115405,984.756036 528.347216,984.540425 528.623177,984.550417 C528.899139,984.560409 529.11475,984.79222 529.104758,985.068182 C529.044262,986.739007 529.000946,988.400881 528.974812,990.053802 C528.970446,990.32991 528.743078,990.550201 528.46697,990.545835 C528.190862,990.54147 527.970571,990.314101 527.974937,990.037993 C528.001179,988.378259 528.044671,986.709594 528.105413,985.031998 Z M527.94833,995.061791 C527.946857,994.785652 528.169517,994.560604 528.445655,994.559131 C528.721794,994.557657 528.946843,994.780317 528.948316,995.056456 C528.957235,996.728308 528.984123,998.390797 529.028979,1000.04392 C529.036469,1000.31997 528.818765,1000.54981 528.542725,1000.5573 C528.266684,1000.56479 528.036837,1000.34709 528.029347,1000.07105 C527.984293,998.41064 527.957288,996.740887 527.94833,995.061791 Z M528.222457,1005.10098 C528.208727,1004.82518 528.421178,1004.59046 528.696979,1004.57674 C528.97278,1004.56301 529.207491,1004.77546 529.22122,1005.05126 C529.30433,1006.72076 529.406194,1008.3805 529.526811,1010.03047 C529.546944,1010.30587 529.340003,1010.54546 529.064596,1010.56559 C528.789188,1010.58572 528.549605,1010.37878 528.529472,1010.10337 C528.408289,1008.44567 528.305951,1006.7782 528.222457,1005.10098 Z M528.950077,1015.0526 C528.923414,1014.77774 529.124612,1014.53332 529.399464,1014.50665 C529.674316,1014.47999 529.918742,1014.68119 529.945405,1014.95604 C530.106757,1016.61934 530.287625,1018.27246 530.48801,1019.91542 C530.521442,1020.18953 530.326333,1020.43884 530.052222,1020.47228 C529.778111,1020.50571 529.528798,1020.3106 529.495365,1020.03649 C529.293983,1018.38535 529.112221,1016.72405 528.950077,1015.0526 Z M530.165647,1025.00868 C530.125269,1024.73551 530.313989,1024.48133 530.587163,1024.44095 C530.860338,1024.40057 531.114522,1024.58929 531.154899,1024.86246 C531.399017,1026.51405 531.663358,1028.15511 531.947923,1029.78563 C531.995399,1030.05766 531.813361,1030.31667 531.541331,1030.36415 C531.2693,1030.41162 531.010289,1030.22959 530.962813,1029.95756 C530.676753,1028.31847 530.411031,1026.66884 530.165647,1025.00868 Z M531.89267,1034.89598 C531.837932,1034.62532 532.012973,1034.36153 532.283636,1034.30679 C532.554299,1034.25205 532.818088,1034.42709 532.872827,1034.69776 C533.203635,1036.33349 533.555338,1037.95835 533.927935,1039.57233 C533.990051,1039.8414 533.822285,1040.10987 533.553219,1040.17199 C533.284154,1040.2341 533.015678,1040.06634 532.953563,1039.79727 C532.578912,1038.1744 532.225281,1036.54063 531.89267,1034.89598 Z M534.152474,1044.67891 C534.082853,1044.41169 534.24304,1044.13863 534.510261,1044.069 C534.777483,1043.99938 535.050548,1044.15957 535.12017,1044.42679 C535.540516,1046.04017 535.982322,1047.64238 536.445585,1049.23342 C536.522784,1049.49855 536.370434,1049.77607 536.105302,1049.85327 C535.84017,1049.93046 535.562656,1049.77811 535.485457,1049.51298 C535.019537,1047.91282 534.575209,1046.30146 534.152474,1044.67891 Z M536.95885,1054.31352 C536.873998,1054.05074 537.018239,1053.76893 537.281021,1053.68407 C537.543804,1053.59922 537.825618,1053.74346 537.91047,1054.00624 C538.422366,1055.59155 538.956182,1057.16546 539.511918,1058.72796 C539.604455,1058.98814 539.468557,1059.27407 539.208381,1059.3666 C538.948205,1059.45914 538.662274,1059.32324 538.569737,1059.06307 C538.010715,1057.49132 537.473753,1055.90814 536.95885,1054.31352 Z M540.322886,1063.76939 C540.222641,1063.51209 540.349962,1063.22223 540.607267,1063.12199 C540.864571,1063.02174 541.154422,1063.14907 541.254667,1063.40637 C541.858824,1064.95709 542.485221,1066.49624 543.133857,1068.02384 C543.241785,1068.27801 543.123225,1068.57156 542.869048,1068.67948 C542.61487,1068.78741 542.321326,1068.66885 542.213399,1068.41468 C541.560846,1066.87786 540.930675,1065.32943 540.322886,1063.76939 Z M544.251149,1073.01837 C544.135555,1072.76759 544.245148,1072.47058 544.495932,1072.35499 C544.746716,1072.23939 545.043724,1072.34898 545.159318,1072.59977 C545.855305,1074.10973 546.573702,1075.60804 547.314507,1077.09471 C547.437665,1077.34187 547.337144,1077.64207 547.089987,1077.76523 C546.842829,1077.88838 546.54263,1077.78786 546.419472,1077.54071 C545.674149,1076.04497 544.951374,1074.53752 544.251149,1073.01837 Z" fill="#979797" fill-rule="nonzero"></path>
        <path id="Path-14-Copy-3" d="M850.149316,1229.12076 L850.823764,1229.69976 L850.004734,1229.99781 L850.149316,1229.12076 Z M850.149316,1229.12076 L851.4977,1220.94126 C851.542615,1220.6688 851.799903,1220.48433 852.072368,1220.52925 C852.344833,1220.57416 852.529299,1220.83145 852.484383,1221.10392 L850.991417,1230.16046 L850.846836,1231.03752 L850.172388,1230.45851 L843.207946,1224.47967 C842.998422,1224.2998 842.974384,1223.98413 843.154257,1223.77461 C843.33413,1223.56508 843.649798,1223.54104 843.859323,1223.72092 L850.149316,1229.12076 Z M849.841239,1045.49118 C849.906463,1045.22285 850.17686,1045.0582 850.44519,1045.12343 C850.713519,1045.18865 850.878168,1045.45905 850.812945,1045.72738 C850.417785,1047.35307 850.031152,1048.9722 849.653045,1050.58476 C849.590006,1050.85361 849.320957,1051.02046 849.052106,1050.95742 C848.783255,1050.89438 848.616412,1050.62533 848.67945,1050.35648 C849.058178,1048.74127 849.445441,1047.1195 849.841239,1045.49118 Z M847.555724,1055.24074 C847.616502,1054.97137 847.88414,1054.80227 848.153511,1054.86305 C848.422882,1054.92383 848.59198,1055.19147 848.531201,1055.46084 C848.162725,1057.09394 847.803138,1058.7202 847.452443,1060.33961 C847.393997,1060.6095 847.127832,1060.78091 846.857945,1060.72246 C846.588059,1060.66402 846.416652,1060.39785 846.475098,1060.12796 C846.826405,1058.50572 847.186614,1056.87665 847.555724,1055.24074 Z M845.439242,1065.01586 C845.495282,1064.74547 845.75991,1064.5717 846.030306,1064.62774 C846.300703,1064.68378 846.474474,1064.9484 846.418434,1065.2188 C846.078806,1066.85755 845.748439,1068.48918 845.427333,1070.11368 C845.373785,1070.38458 845.110768,1070.56078 844.839867,1070.50723 C844.568966,1070.45368 844.392767,1070.19066 844.446314,1069.91976 C844.768016,1068.29225 845.098993,1066.65762 845.439242,1065.01586 Z M843.49824,1074.83839 C843.549208,1074.56699 843.810536,1074.3883 844.081934,1074.43926 C844.353333,1074.49023 844.532027,1074.75156 844.48106,1075.02296 C844.172372,1076.66671 843.873336,1078.30303 843.583954,1079.93193 C843.535652,1080.20381 843.276089,1080.38506 843.004204,1080.33676 C842.732318,1080.28846 842.551068,1080.02889 842.59937,1079.75701 C842.889327,1078.12489 843.18895,1076.48535 843.49824,1074.83839 Z M841.747478,1084.69704 C841.793014,1084.42468 842.050721,1084.2408 842.323083,1084.28634 C842.595445,1084.33187 842.779324,1084.58958 842.733788,1084.86194 C842.457612,1086.51382 842.191549,1088.15791 841.9356,1089.79422 C841.892925,1090.06704 841.637162,1090.25362 841.364337,1090.21094 C841.091512,1090.16827 840.904938,1089.9125 840.947613,1089.63968 C841.204105,1087.9999 841.470726,1086.35236 841.747478,1084.69704 Z M840.200292,1094.59234 C840.240002,1094.31907 840.493724,1094.12973 840.766996,1094.16944 C841.040269,1094.20915 841.229608,1094.46287 841.189898,1094.73614 C840.949318,1096.39173 840.719294,1098.0392 840.499824,1099.67853 C840.463182,1099.95223 840.2116,1100.14441 839.937899,1100.10777 C839.664199,1100.07112 839.472025,1099.81954 839.508667,1099.54584 C839.728634,1097.90279 839.959176,1096.25162 840.200292,1094.59234 Z M838.873022,1104.51181 C838.906481,1104.2377 839.155813,1104.04261 839.429921,1104.07607 C839.704029,1104.10953 839.899114,1104.35886 839.865655,1104.63297 C839.662704,1106.29562 839.470832,1107.94975 839.290039,1109.59534 C839.259882,1109.86983 839.012916,1110.0679 838.738425,1110.03775 C838.463934,1110.00759 838.265863,1109.76062 838.29602,1109.48613 C838.477253,1107.83654 838.669587,1106.17843 838.873022,1104.51181 Z M837.779005,1114.47739 C837.80573,1114.20254 838.050202,1114.0014 838.325048,1114.02812 C838.599894,1114.05485 838.801036,1114.29932 838.77431,1114.57417 C838.612299,1116.24032 838.461887,1117.89754 838.323074,1119.54583 C838.2999,1119.821 838.058046,1120.02529 837.782878,1120.00211 C837.50771,1119.97894 837.303428,1119.73708 837.326601,1119.46192 C837.465777,1117.80932 837.616578,1116.14781 837.779005,1114.47739 Z M836.940628,1124.43989 C836.960125,1124.16443 837.19923,1123.95694 837.474683,1123.97644 C837.750136,1123.99593 837.95763,1124.23504 837.938132,1124.51049 C837.819949,1126.18016 837.713932,1127.84045 837.620081,1129.49138 C837.604409,1129.76708 837.368207,1129.97787 837.092509,1129.9622 C836.816812,1129.94652 836.606021,1129.71032 836.621693,1129.43462 C836.715807,1127.77907 836.822119,1126.11415 836.940628,1124.43989 Z M836.373054,1134.44126 C836.38475,1134.16537 836.617888,1133.9512 836.893783,1133.96289 C837.169677,1133.97459 837.383852,1134.20773 837.372156,1134.48362 C837.301214,1136.15706 837.243064,1137.82066 837.197707,1139.47439 C837.190136,1139.75043 836.960225,1139.96807 836.684186,1139.96049 C836.408148,1139.95292 836.190512,1139.72301 836.198083,1139.44697 C836.243577,1137.78824 836.301901,1136.11967 836.373054,1134.44126 Z M836.099374,1144.45322 C836.102664,1144.17709 836.329172,1143.95592 836.605295,1143.95921 C836.881418,1143.9625 837.102593,1144.18901 837.099303,1144.46513 C837.079356,1146.1395 837.072845,1147.80352 837.079768,1149.45718 C837.080924,1149.73332 836.858006,1149.95812 836.581866,1149.95927 C836.305726,1149.96043 836.080933,1149.73751 836.079777,1149.46137 C836.072831,1147.80232 836.079363,1146.13293 836.099374,1144.45322 Z M836.142553,1154.47964 C836.136772,1154.20356 836.355895,1153.97507 836.631976,1153.96928 C836.908058,1153.9635 837.136553,1154.18263 837.142334,1154.45871 C837.177376,1156.13225 837.226535,1157.79492 837.289808,1159.44671 C837.300379,1159.72265 837.085254,1159.95492 836.809314,1159.96549 C836.533374,1159.97606 836.301111,1159.76093 836.290541,1159.48499 C836.227045,1157.8274 836.177716,1156.15895 836.142553,1154.47964 Z M836.527814,1164.50132 C836.51226,1164.22562 836.723154,1163.98951 836.998858,1163.97395 C837.274562,1163.9584 837.510673,1164.16929 837.526227,1164.445 C837.620547,1166.11687 837.729721,1167.77729 837.85375,1169.42627 C837.874462,1169.70164 837.668025,1169.94166 837.39266,1169.96237 C837.117296,1169.98308 836.877279,1169.77664 836.856567,1169.50128 C836.732068,1167.84606 836.622484,1166.17941 836.527814,1164.50132 Z M837.281045,1174.49853 C837.254981,1174.22362 837.456711,1173.97964 837.731621,1173.95357 C838.00653,1173.92751 838.250517,1174.12924 838.27658,1174.40415 C838.434565,1176.07053 838.608155,1177.72489 838.797349,1179.36722 C838.828951,1179.64155 838.632183,1179.88955 838.357855,1179.92115 C838.083527,1179.95276 837.835521,1179.75599 837.803919,1179.48166 C837.613953,1177.83263 837.439662,1176.17159 837.281045,1174.49853 Z M838.424828,1184.42197 C838.387528,1184.14836 838.579097,1183.89631 838.852709,1183.85901 C839.126321,1183.82171 839.378364,1184.01328 839.415663,1184.2869 C839.641645,1185.9446 839.884002,1187.58968 840.142736,1189.22214 C840.185963,1189.49488 839.999907,1189.75102 839.727169,1189.79424 C839.454431,1189.83747 839.198291,1189.65142 839.155064,1189.37868 C838.895195,1187.73905 838.651783,1186.08682 838.424828,1184.42197 Z M839.996565,1194.3287 C839.947201,1194.05701 840.127436,1193.79674 840.39913,1193.74738 C840.670824,1193.69801 840.931093,1193.87825 840.980457,1194.14994 C841.279505,1195.79588 841.595734,1197.42857 841.929143,1199.04803 C841.984826,1199.3185 841.810708,1199.5829 841.540238,1199.63858 C841.269768,1199.69426 841.005368,1199.52015 840.949685,1199.24968 C840.614704,1197.62259 840.296998,1195.98226 839.996565,1194.3287 Z M842.019458,1204.14752 C841.957263,1203.87848 842.12495,1203.60995 842.393997,1203.54776 C842.663045,1203.48556 842.931569,1203.65325 842.993764,1203.9223 C843.370263,1205.55099 843.764728,1207.16584 844.177159,1208.76684 C844.246046,1209.03426 844.08511,1209.30688 843.817698,1209.37577 C843.550286,1209.44466 843.277662,1209.28372 843.208775,1209.01631 C842.794264,1207.40723 842.397825,1205.7843 842.019458,1204.14752 Z M844.524596,1213.86537 C844.448824,1213.59982 844.602664,1213.32313 844.868207,1213.24736 C845.13375,1213.17159 845.410441,1213.32543 845.486213,1213.59097 C845.944687,1215.19768 846.421905,1216.78995 846.917867,1218.36777 C847.000673,1218.63121 846.854245,1218.91189 846.59081,1218.9947 C846.327376,1219.0775 846.046692,1218.93107 845.963886,1218.66764 C845.465259,1217.08134 844.985496,1215.48058 844.524596,1213.86537 Z M847.54957,1223.43889 C847.455139,1223.1794 847.588948,1222.89249 847.848443,1222.79805 C848.107937,1222.70362 848.39485,1222.83743 848.489282,1223.09693 L850.199118,1227.79549 C850.29355,1228.05498 850.15974,1228.34189 849.900246,1228.43633 C849.640752,1228.53076 849.353838,1228.39695 849.259406,1228.13745 L847.54957,1223.43889 Z" fill="#979797" fill-rule="nonzero"></path>
        <path d="M687.039511,1000 C686.251925,1110.90687 697.238754,1206.2402 720,1286" id="Path-18" stroke="#455A64" stroke-width="3" stroke-linecap="round" fill-rule="nonzero" transform="translate(703.500000, 1143.000000) scale(-1, 1) translate(-703.500000, -1143.000000) "></path>
        <path id="Path-19" d="M605.811412,1462.1991 L617.188994,1467.68548 C617.935196,1468.04531 618.248416,1468.94192 617.88859,1469.68812 C617.528765,1470.43432 616.632152,1470.74754 615.885951,1470.38772 L599.350467,1462.41415 L596.94848,1461.25589 L599.185651,1459.80462 L614.586533,1449.81399 C615.281533,1449.36314 616.210429,1449.56106 616.661279,1450.25606 C617.11213,1450.95106 616.914207,1451.87995 616.219207,1452.3308 L605.622311,1459.20507 L615.729965,1458.56668 C642.760837,1454.96398 661.673396,1440.94244 672.630196,1416.38874 C672.967785,1415.63222 673.854737,1415.29261 674.611259,1415.6302 C675.367781,1415.96779 675.707393,1416.85474 675.369804,1417.61126 C663.97977,1443.13582 644.16011,1457.81904 616.07369,1461.54738 L615.970853,1461.55744 L605.811412,1462.1991 Z" fill="#455A64" fill-rule="nonzero"></path>
        <path id="Path-20" d="M582.944979,1617.36703 L595.087299,1620.84752 C595.883657,1621.07579 596.344183,1621.90641 596.115915,1622.70277 C595.887646,1623.49913 595.057022,1623.95965 594.260665,1623.73139 L576.613759,1618.67306 L574.050323,1617.93827 L576.009432,1616.12913 L589.496101,1603.67482 C590.104718,1603.11279 591.053714,1603.15056 591.615743,1603.75917 C592.177772,1604.36779 592.140006,1605.31679 591.531389,1605.87882 L582.251606,1614.44826 L592.140412,1612.09911 C644.890245,1595.0263 672.769341,1531.75936 675.500464,1421.9627 C675.521064,1421.13453 676.209129,1420.47986 677.0373,1420.50046 C677.865471,1420.52106 678.520136,1421.20913 678.499536,1422.0373 C675.739293,1533.00467 647.333975,1597.42827 593.006054,1614.97214 L592.89179,1615.0041 L582.944979,1617.36703 Z" fill="#455A64" fill-rule="nonzero"></path>
        <path id="Path-20-Copy" d="M768.220696,1620.89354 L763.419296,1609.21038 C763.104395,1608.44414 763.47028,1607.56769 764.236524,1607.25279 C765.002767,1606.93789 765.879208,1607.30378 766.194109,1608.07002 L773.17217,1625.04962 L774.185821,1627.51612 L771.551575,1627.10156 L753.4172,1624.24771 C752.598845,1624.11892 752.039839,1623.35111 752.168626,1622.53276 C752.297412,1621.7144 753.065222,1621.15539 753.883578,1621.28418 L766.36131,1623.24783 L758.398418,1616.95885 L758.321213,1616.89353 C720.730176,1582.85013 696.839082,1516.60386 686.508191,1418.15655 C686.421732,1417.33264 687.019549,1416.59465 687.843452,1416.50819 C688.667355,1416.42173 689.40535,1417.01955 689.491809,1417.84345 C699.749362,1515.5919 723.397838,1581.18881 760.297638,1614.63602 L768.220696,1620.89354 Z" fill="#455A64" fill-rule="nonzero"></path>
        <path id="Path-21" d="M878.285861,1463.46233 L867.326498,1457.18204 C866.607725,1456.77014 866.358951,1455.85356 866.770846,1455.13478 C867.182741,1454.41601 868.099328,1454.16724 868.818101,1454.57913 L884.74577,1463.70653 L887.059464,1465.0324 L884.724904,1466.32117 L868.653592,1475.1932 C867.928337,1475.59357 867.015837,1475.3302 866.615466,1474.60495 C866.215095,1473.87969 866.478466,1472.96719 867.203721,1472.56682 L878.261949,1466.46222 L867.991334,1466.38022 C774.325496,1464.85584 715.613632,1448.79357 691.811985,1417.91576 C691.306223,1417.25964 691.428115,1416.31775 692.084238,1415.81198 C692.740361,1415.30622 693.682254,1415.42812 694.188015,1416.08424 C717.257348,1446.01202 775.222647,1461.87004 868.027713,1463.38047 L878.285861,1463.46233 Z" fill="#455A64" fill-rule="nonzero"></path>
        <text id="Usability-Testing-To" font-family="Arial-BoldMT, Arial" font-size="18" font-weight="bold" fill="#455A64">
            <tspan x="526.988281" y="2155">Usability </tspan>
            <tspan x="507.335938" y="2175">Testing Tools</tspan>
        </text>
        <path id="Path-19" d="M647.837714,2166.08814 L659.338455,2171.31143 C660.092734,2171.654 660.42649,2172.54317 660.08392,2173.29745 C659.741349,2174.05173 658.852177,2174.38548 658.097898,2174.04291 L641.383423,2166.45171 L638.955436,2165.34899 L641.158642,2163.84666 L656.325701,2153.5045 C657.01015,2153.03779 657.943351,2153.2143 658.410065,2153.89875 C658.876779,2154.58319 658.70027,2155.5164 658.015822,2155.98311 L647.579812,2163.09925 L657.632228,2162.23186 C695.830906,2155.25626 717.495291,2119.29827 722.504379,2053.88547 C722.567632,2053.05946 723.288521,2052.44113 724.11453,2052.50438 C724.940538,2052.56763 725.558874,2053.28852 725.495621,2054.11453 C720.391299,2120.77098 697.966346,2157.95592 658.099545,2165.19609 L657.960467,2165.21468 L647.837714,2166.08814 Z" fill="#455A64" fill-rule="nonzero"></path>
        <path d="M682,1418 C682,1418 714.525635,1649.2678 705.3778,1916" id="Path-22" stroke="#455A64" stroke-width="3" stroke-linecap="round" fill-rule="nonzero"></path>
        <text id="Usability-Test-Measu" font-family="Arial-BoldMT, Arial" font-size="16" font-weight="bold" fill="#4A04E7">
            <tspan x="654.078125" y="1954">Usability Test</tspan>
            <tspan x="626.375" y="1971">Measuing the impact</tspan>
        </text>
        <text id="UI-Design" font-family="Arial-BoldMT, Arial" font-size="16" font-weight="bold" fill="#4A04E7">
            <tspan x="685.605469" y="2409">UI Design</tspan>
        </text>
        <path id="Path-23" d="M974.349897,1886.91907 L967.300242,1882.85047 C967.061073,1882.71244 966.979086,1882.40666 967.117118,1882.16749 C967.255151,1881.92832 967.560933,1881.84633 967.800102,1881.98437 L975.7499,1886.57247 L976.519772,1887.01679 L975.740271,1887.44399 L967.691045,1891.85534 C967.448885,1891.98805 967.144989,1891.89933 967.012275,1891.65717 C966.87956,1891.41501 966.968283,1891.11111 967.210443,1890.9784 L974.348268,1887.06654 C974.344977,1887.04244 974.343406,1887.0178 974.343683,1886.99275 C974.34396,1886.9677 974.346074,1886.9431 974.349897,1886.91907 Z M794.535318,1667.96648 C794.553832,1667.69096 794.792194,1667.48261 795.067715,1667.50113 C795.343236,1667.51964 795.551582,1667.758 795.533068,1668.03352 C795.420742,1669.70513 795.317577,1671.36715 795.223572,1673.01957 C795.207888,1673.29527 794.971677,1673.50605 794.695981,1673.49036 C794.420284,1673.47468 794.209502,1673.23847 794.225186,1672.96277 C794.319387,1671.30692 794.422764,1669.64149 794.535318,1667.96648 Z M793.967147,1677.96576 C793.979892,1677.68991 794.213842,1677.47662 794.489691,1677.48937 C794.765539,1677.50211 794.978826,1677.73606 794.966082,1678.01191 C794.888951,1679.68134 794.821394,1681.34075 794.76341,1682.99012 C794.753708,1683.26609 794.522123,1683.48195 794.246152,1683.47224 C793.97018,1683.46254 793.754325,1683.23096 793.764027,1682.95499 C793.822141,1681.30193 793.889847,1679.63885 793.967147,1677.96576 Z M793.616423,1687.97017 C793.622948,1687.69411 793.852033,1687.4756 794.128098,1687.48213 C794.404163,1687.48865 794.622669,1687.71774 794.616144,1687.9938 C794.576533,1689.66964 794.547055,1691.33486 794.527708,1692.98946 C794.52448,1693.26558 794.29802,1693.48681 794.021896,1693.48358 C793.745773,1693.48035 793.524548,1693.25389 793.527777,1692.97777 C793.54717,1691.31917 793.576719,1689.64997 793.616423,1687.97017 Z M793.500095,1697.97432 C793.499904,1697.69818 793.723606,1697.47417 793.999748,1697.47398 C794.275891,1697.47379 794.499903,1697.69749 794.500095,1697.97363 C794.501255,1699.64704 794.513052,1701.3093 794.535485,1702.96042 C794.539237,1703.23654 794.318441,1703.46342 794.042324,1703.46717 C793.766207,1703.47092 793.539329,1703.25012 793.535578,1702.97401 C793.513085,1701.31858 793.501258,1699.65202 793.500095,1697.97432 Z M793.637098,1707.98296 C793.629634,1707.70692 793.847358,1707.47709 794.1234,1707.46962 C794.399441,1707.46216 794.629268,1707.67988 794.636733,1707.95593 C794.682063,1709.63228 794.738665,1711.29683 794.806538,1712.94956 C794.817869,1713.22547 794.603385,1713.45832 794.327475,1713.46965 C794.051565,1713.48098 793.818711,1713.2665 793.80738,1712.99059 C793.739315,1711.33318 793.682555,1709.66397 793.637098,1707.98296 Z M794.049394,1717.99769 C794.034034,1717.72197 794.245094,1717.48601 794.520809,1717.47065 C794.796524,1717.45529 795.032486,1717.66635 795.047846,1717.94207 C795.141186,1719.6176 795.246453,1721.28063 795.363647,1722.93115 C795.383205,1723.2066 795.175764,1723.44575 794.900315,1723.46531 C794.624867,1723.48487 794.385716,1723.27743 794.366158,1723.00198 C794.248604,1721.34637 794.143016,1719.67827 794.049394,1717.99769 Z M794.760202,1727.99443 C794.736275,1727.71933 794.939893,1727.47691 795.214997,1727.45299 C795.490101,1727.42906 795.732514,1727.63268 795.756441,1727.90778 C795.901688,1729.57777 796.059527,1731.23455 796.229957,1732.87813 C796.258439,1733.1528 796.058864,1733.39855 795.784195,1733.42704 C795.509525,1733.45552 795.263772,1733.25594 795.235291,1732.98127 C795.064288,1731.33218 794.905925,1729.6699 794.760202,1727.99443 Z M795.793412,1737.94843 C795.760194,1737.67429 795.955497,1737.42513 796.229634,1737.39191 C796.503772,1737.35869 796.752932,1737.554 796.78615,1737.82814 C796.987873,1739.49289 797.202943,1741.14364 797.431361,1742.7804 C797.469528,1743.05389 797.27876,1743.30654 797.005268,1743.34471 C796.731776,1743.38288 796.479126,1743.19211 796.440959,1742.91862 C796.211705,1741.27587 795.995856,1739.61914 795.793412,1737.94843 Z M797.180237,1747.87612 C797.136913,1747.6034 797.322877,1747.34719 797.595599,1747.30387 C797.868322,1747.26054 798.124528,1747.44651 798.167853,1747.71923 C798.431137,1749.37657 798.708594,1751.01905 799.000222,1752.64667 C799.048924,1752.91848 798.868056,1753.17831 798.596242,1753.22701 C798.324429,1753.27572 798.064599,1753.09485 798.015897,1752.82303 C797.723104,1751.18891 797.444551,1749.53994 797.180237,1747.87612 Z M798.950234,1757.74689 C798.895938,1757.47614 799.07141,1757.21264 799.342162,1757.15834 C799.612913,1757.10405 799.876417,1757.27952 799.930713,1757.55027 C800.259741,1759.191 800.603717,1760.81604 800.96264,1762.42541 C801.022749,1762.69493 800.852987,1762.96215 800.583466,1763.02226 C800.313945,1763.08237 800.046727,1762.91261 799.986618,1762.64309 C799.626128,1761.02669 799.280667,1759.39463 798.950234,1757.74689 Z M801.133874,1767.52919 C801.067703,1767.26109 801.231397,1766.99011 801.499494,1766.92394 C801.767591,1766.85777 802.038569,1767.02146 802.10474,1767.28956 C802.506678,1768.91806 802.924546,1770.52984 803.358342,1772.12492 C803.430809,1772.39138 803.273544,1772.66614 803.00708,1772.73861 C802.740616,1772.81107 802.465858,1772.65381 802.39339,1772.38735 C801.957526,1770.78467 801.537688,1769.16528 801.133874,1767.52919 Z M803.768108,1777.2091 C803.689114,1776.9445 803.839579,1776.66596 804.104182,1776.58696 C804.368784,1776.50797 804.647324,1776.65844 804.726319,1776.92304 C805.205005,1778.52647 805.700492,1780.11227 806.212778,1781.68045 C806.298527,1781.94294 806.15525,1782.22525 805.892759,1782.311 C805.630268,1782.39675 805.347963,1782.25347 805.262213,1781.99098 C804.747265,1780.41465 804.24923,1778.82069 803.768108,1777.2091 Z M806.893955,1786.7685 C806.801166,1786.50841 806.936787,1786.22235 807.196873,1786.12956 C807.456959,1786.03677 807.743021,1786.17239 807.83581,1786.43248 C808.398384,1788.00936 808.97875,1789.56757 809.576909,1791.10711 C809.676916,1791.36451 809.549325,1791.65424 809.291928,1791.75425 C809.034531,1791.85425 808.744798,1791.72666 808.644792,1791.46927 C808.043254,1789.92103 807.459642,1788.35411 806.893955,1786.7685 Z M810.513767,1796.083 C810.40639,1795.82859 810.525585,1795.5353 810.779995,1795.42792 C811.034406,1795.32055 811.327693,1795.43974 811.43507,1795.69415 C812.084918,1797.23386 812.753463,1798.75395 813.440702,1800.25442 C813.555692,1800.50548 813.445385,1800.80222 813.194323,1800.91721 C812.943262,1801.0322 812.646518,1800.9219 812.531528,1800.67083 C811.840094,1799.1612 811.167507,1797.63192 810.513767,1796.083 Z M814.694309,1805.20515 C814.571515,1804.95781 814.672478,1804.65776 814.919816,1804.53496 C815.167155,1804.41217 815.467206,1804.51313 815.59,1804.76047 C816.332766,1806.25659 817.095144,1807.73213 817.877135,1809.1871 C818.007866,1809.43033 817.916661,1809.73349 817.673425,1809.86423 C817.430188,1809.99496 817.127027,1809.90375 816.996297,1809.66051 C816.209186,1808.19602 815.441857,1806.7109 814.694309,1805.20515 Z M819.449147,1814.04747 C819.310348,1813.80875 819.391353,1813.50271 819.630078,1813.36391 C819.868802,1813.22511 820.174846,1813.30611 820.313645,1813.54484 C821.151774,1814.98636 822.010308,1816.40648 822.889247,1817.8052 C823.036171,1818.03901 822.965734,1818.34766 822.731922,1818.49459 C822.49811,1818.64151 822.189463,1818.57107 822.042539,1818.33726 C821.157488,1816.92881 820.293024,1815.49888 819.449147,1814.04747 Z M824.79217,1822.5464 C824.637062,1822.31793 824.69653,1822.00699 824.924995,1821.85188 C825.15346,1821.69677 825.464407,1821.75624 825.619514,1821.9847 C826.555051,1823.36269 827.511679,1824.71858 828.4894,1826.05236 C828.652659,1826.27508 828.604461,1826.58797 828.381748,1826.75123 C828.159034,1826.91449 827.846142,1826.86629 827.682884,1826.64357 C826.69803,1825.30006 825.734459,1823.93434 824.79217,1822.5464 Z M830.730833,1830.64481 C830.559459,1830.42828 830.596065,1830.11382 830.812596,1829.94244 C831.029127,1829.77107 831.343586,1829.80767 831.51496,1830.02421 C832.547504,1831.32882 833.601654,1832.61081 834.677412,1833.87018 C834.856768,1834.08014 834.831952,1834.39575 834.621985,1834.57511 C834.412018,1834.75446 834.096409,1834.72965 833.917054,1834.51968 C832.833184,1833.25082 831.77111,1831.95919 830.730833,1830.64481 Z M837.265821,1838.29242 C837.078605,1838.08943 837.091392,1837.7731 837.294382,1837.58589 C837.497371,1837.39867 837.813695,1837.41146 838.000911,1837.61445 C839.127106,1838.83553 840.275178,1840.03372 841.44513,1841.20901 C841.639947,1841.40472 841.639225,1841.7213 841.443519,1841.91612 C841.247812,1842.11093 840.931231,1842.11021 840.736414,1841.91451 C839.557493,1840.7302 838.400628,1839.52284 837.265821,1838.29242 Z M844.366025,1845.42307 C844.163825,1845.235 844.152368,1844.91863 844.340437,1844.71643 C844.528505,1844.51423 844.84488,1844.50277 845.04708,1844.69084 C846.261917,1845.82077 847.49867,1846.92779 848.757341,1848.01189 C848.966572,1848.1921 848.990097,1848.50781 848.809884,1848.71704 C848.629671,1848.92627 848.313964,1848.9498 848.104732,1848.76959 C846.83642,1847.67718 845.590184,1846.56167 844.366025,1845.42307 Z M851.98595,1851.98553 C851.770002,1851.81342 851.73446,1851.49884 851.906567,1851.28289 C852.078673,1851.06694 852.393254,1851.0314 852.609203,1851.20351 C853.905675,1852.23677 855.223866,1853.24734 856.563781,1854.23522 C856.786045,1854.39909 856.833384,1854.71211 856.669515,1854.93437 C856.505646,1855.15664 856.192623,1855.20398 855.970358,1855.04011 C854.620368,1854.0448 853.292231,1853.02661 851.98595,1851.98553 Z M860.079882,1857.95329 C859.85168,1857.79779 859.792738,1857.48674 859.948232,1857.25854 C860.103726,1857.03034 860.414773,1856.9714 860.642976,1857.12689 C862.011581,1858.05944 863.401459,1858.96979 864.81261,1859.85793 C865.046318,1860.00502 865.116536,1860.31372 864.969446,1860.54742 C864.822357,1860.78113 864.51366,1860.85135 864.279952,1860.70426 C862.858553,1859.80967 861.458528,1858.89268 860.079882,1857.95329 Z M868.486256,1863.24993 C868.247563,1863.11108 868.166626,1862.80502 868.305479,1862.56632 C868.444332,1862.32763 868.750394,1862.24669 868.989087,1862.38555 C870.418171,1863.21688 871.867855,1864.02671 873.33814,1864.81506 C873.581506,1864.94555 873.673011,1865.24862 873.542522,1865.49199 C873.412032,1865.73535 873.108962,1865.82686 872.865596,1865.69637 C871.38514,1864.90257 869.92536,1864.08709 868.486256,1863.24993 Z M877.326985,1867.99201 C877.079357,1867.8698 876.977683,1867.56999 877.099891,1867.32236 C877.222099,1867.07473 877.52191,1866.97306 877.769539,1867.09527 C879.251457,1867.82661 880.753194,1868.53729 882.274752,1869.2273 C882.526242,1869.34135 882.637661,1869.63768 882.523613,1869.88917 C882.409565,1870.14066 882.113237,1870.25208 881.861746,1870.13803 C880.33029,1869.44353 878.818702,1868.72819 877.326985,1867.99201 Z M886.474177,1872.14174 C886.219199,1872.03571 886.098449,1871.74306 886.204473,1871.48809 C886.310498,1871.23311 886.603148,1871.11236 886.858125,1871.21838 C888.383364,1871.85261 889.927532,1872.46709 891.490633,1873.06185 C891.748724,1873.16005 891.878339,1873.44888 891.780137,1873.70697 C891.681935,1873.96506 891.393102,1874.09468 891.135011,1873.99648 C889.562441,1873.39812 888.008829,1872.77988 886.474177,1872.14174 Z M895.847056,1875.71016 C895.586194,1875.61958 895.44816,1875.33467 895.538747,1875.07381 C895.629334,1874.81295 895.914239,1874.67491 896.1751,1874.7655 C897.734411,1875.30699 899.311694,1875.82974 900.90695,1876.33376 C901.170263,1876.41695 901.316278,1876.69785 901.233085,1876.96116 C901.149892,1877.22448 900.868994,1877.37049 900.605681,1877.2873 C899.001488,1876.78046 897.415279,1876.25475 895.847056,1875.71016 Z M905.42927,1878.73893 C905.163791,1878.66293 905.010186,1878.38611 905.086183,1878.12063 C905.162181,1877.85515 905.439002,1877.70154 905.70448,1877.77754 C907.291407,1878.23182 908.895351,1878.66836 910.516314,1879.08716 C910.783677,1879.15624 910.944419,1879.42898 910.875342,1879.69634 C910.806265,1879.96371 910.533526,1880.12445 910.266163,1880.05537 C908.636847,1879.63441 907.024549,1879.1956 905.42927,1878.73893 Z M915.132083,1881.24774 C914.863085,1881.18533 914.695608,1880.91667 914.758014,1880.64768 C914.820419,1880.37868 915.089075,1880.2112 915.358074,1880.27361 C916.965961,1880.64662 918.589922,1881.00288 920.229957,1881.34239 C920.500366,1881.39836 920.674198,1881.66295 920.618221,1881.93336 C920.562243,1882.20377 920.297655,1882.3776 920.027245,1882.32162 C918.379459,1881.98052 916.747738,1881.62255 915.132083,1881.24774 Z M924.95791,1883.28323 C924.686292,1883.23345 924.506455,1882.97291 924.556234,1882.70129 C924.606014,1882.42967 924.866558,1882.24983 925.138177,1882.29961 C926.761848,1882.59718 928.400681,1882.87894 930.054675,1883.14489 C930.327315,1883.18873 930.512795,1883.44529 930.468956,1883.71793 C930.425118,1883.99057 930.168561,1884.17605 929.89592,1884.13221 C928.234769,1883.86511 926.588765,1883.58212 924.95791,1883.28323 Z M934.854412,1884.87604 C934.580915,1884.83791 934.390113,1884.58529 934.428244,1884.31179 C934.466375,1884.0383 934.718999,1883.84749 934.992496,1883.88562 C936.628115,1884.11366 938.278037,1884.32679 939.942262,1884.52499 C940.216466,1884.55765 940.412279,1884.80641 940.379622,1885.08061 C940.346965,1885.35482 940.098204,1885.55063 939.824,1885.51797 C938.153183,1885.31898 936.496653,1885.10501 934.854412,1884.87604 Z M944.80996,1886.06308 C944.53518,1886.03568 944.334641,1885.79072 944.362042,1885.51594 C944.389444,1885.24116 944.63441,1885.04062 944.90919,1885.06802 C946.552763,1885.23192 948.209824,1885.38175 949.880374,1885.51751 C950.155609,1885.53988 950.360598,1885.78114 950.33823,1886.05637 C950.315862,1886.33161 950.074607,1886.5366 949.799372,1886.51423 C948.122764,1886.37797 946.459626,1886.22759 944.80996,1886.06308 Z M954.816719,1886.87726 C954.541133,1886.85974 954.331931,1886.62213 954.349453,1886.34654 C954.366975,1886.07095 954.604586,1885.86175 954.880172,1885.87927 C956.52889,1885.9841 958.190335,1886.07565 959.864506,1886.15393 C960.140347,1886.16682 960.353505,1886.40089 960.340609,1886.67673 C960.327712,1886.95257 960.093644,1887.16573 959.817803,1887.15284 C958.138066,1887.0743 956.471038,1886.98244 954.816719,1886.87726 Z M964.825082,1887.34632 C964.549069,1887.33787 964.332174,1887.10725 964.340633,1886.83124 C964.349093,1886.55523 964.579703,1886.33833 964.855716,1886.34679 C965.739502,1886.37388 966.62673,1886.39738 967.511765,1886.41719 L969.849493,1886.44307 C970.125618,1886.44612 970.346984,1886.67244 970.343927,1886.94857 C970.34087,1887.2247 970.114548,1887.44606 969.838423,1887.443 L967.495059,1887.41703 C966.601629,1887.39706 965.711637,1887.3735 964.825082,1887.34632 Z" fill="#979797" fill-rule="nonzero"></path>
        <path d="M717.438593,2049.60678 C713.720955,2034.68341 713.695469,2016.88839 717.362135,1996.22172" id="Path" stroke="#455A64" stroke-width="3" stroke-linecap="round" fill-rule="nonzero" transform="translate(716.034855, 2022.914250) rotate(-17.000000) translate(-716.034855, -2022.914250) "></path>
        <path d="M731,2073 C717,2194 713.5,2294 720.5,2373" id="Path-24" stroke="#455A64" stroke-width="3" stroke-linecap="round" fill-rule="nonzero"></path>
        <path id="Path-25" d="M948.393126,725.165812 L937.855095,718.201645 C937.163955,717.744898 936.973942,716.814352 937.430689,716.123213 C937.887436,715.432073 938.817981,715.24206 939.509121,715.698807 L954.824452,725.820103 L957.049197,727.290348 L954.637443,728.428133 L938.034725,736.260741 C937.285489,736.614205 936.391573,736.293369 936.038109,735.544133 C935.684645,734.794897 936.005481,733.900982 936.754717,733.547517 L948.178561,728.158129 L938.032996,727.43064 L937.908374,727.416447 C915.807759,723.958046 903.069653,712.160618 900.017283,692.227044 C899.89189,691.408162 900.454074,690.642676 901.272956,690.517283 C902.091838,690.39189 902.857324,690.954074 902.982717,691.772956 C905.826645,710.34529 917.495141,721.167823 938.310478,724.442835 L948.393126,725.165812 Z" fill="#455A64" fill-rule="nonzero"></path>
        <path id="Path-26" d="M831.896162,2213.1582 L821.369649,2206.17664 C820.679264,2205.71875 820.490789,2204.78789 820.948677,2204.09751 C821.406564,2203.40713 822.337423,2203.21865 823.027807,2203.67654 L838.326399,2213.82312 L840.548712,2215.29704 L838.135082,2216.43084 L821.519448,2224.23601 C820.769629,2224.58823 819.876245,2224.26592 819.524019,2223.5161 C819.171792,2222.76628 819.494105,2221.8729 820.243923,2221.52067 L831.676655,2216.15016 L821.533742,2215.40602 L821.416803,2215.39281 C771.068625,2207.69536 742.814435,2160.09693 736.503931,2073.10853 C736.443991,2072.28228 737.065213,2071.56387 737.891469,2071.50393 C738.717725,2071.44399 739.436128,2072.06521 739.496069,2072.89147 C745.714782,2158.61458 773.203543,2204.95342 821.812229,2212.41839 L831.896162,2213.1582 Z" fill="#455A64" fill-rule="nonzero"></path>
        <path id="Path-27" d="M927.368337,1084.55261 L916.735526,1077.73403 C916.03817,1077.28683 915.835378,1076.35899 916.282576,1075.66163 C916.729775,1074.96428 917.657619,1074.76148 918.354975,1075.20868 L933.808053,1085.11839 L936.052807,1086.55791 L933.656929,1087.72875 L917.1635,1095.78895 C916.419196,1096.15268 915.520953,1095.84417 915.157218,1095.09987 C914.793483,1094.35556 915.101995,1093.45732 915.846299,1093.09359 L927.196791,1087.5467 L916.929185,1086.95007 C885.056449,1083.00454 867.791593,1065.61981 865.504199,1035.11215 C865.442259,1034.28604 866.06174,1033.56614 866.887848,1033.5042 C867.713957,1033.44226 868.433862,1034.06174 868.495801,1034.88785 C870.674331,1063.94355 886.81845,1080.19976 917.20016,1083.96394 L927.368337,1084.55261 Z" fill="#455A64" fill-rule="nonzero"></path>
        <path id="Path-28" d="M907.827462,1711.3402 L897.035203,1704.77691 C896.327389,1704.34645 896.102547,1703.4237 896.533002,1702.71589 C896.963458,1702.00808 897.886207,1701.78323 898.59402,1702.21369 L914.278831,1711.75238 L916.557247,1713.138 L914.189947,1714.3656 L897.893252,1722.8165 C897.157826,1723.19787 896.252487,1722.91085 895.871121,1722.17542 C895.489754,1721.43999 895.776776,1720.53465 896.512202,1720.15329 L907.726082,1714.33816 L897.459757,1713.98825 C853.653677,1710.85213 830.471926,1693.18553 828.502815,1661.09186 C828.452083,1660.26499 829.081268,1659.55355 829.90814,1659.50282 C830.735012,1659.45208 831.446452,1660.08127 831.497185,1660.90814 C833.361601,1691.29545 855.22443,1707.9569 897.61786,1710.99294 L907.827462,1711.3402 Z" fill="#455A64" fill-rule="nonzero"></path>
    </g>
</svg>